<svg id="Layer_1" data-name="Layer 1" xmlns="http://www.w3.org/2000/svg" viewBox="0 0 3817.12 2096">
  <defs>
    <style>
      .cls-1 {
        fill: #97999b;
        stroke: #999;
        stroke-miterlimit: 10;
        fill-rule: evenodd;
      }
    </style>
  </defs>
  <title>mountain</title>
  <g>
    <path class="cls-1" d="M3073,441c2.78,4.16-.55,10.75-4,12-2.81.4-5.64-4.26-4-5C3066.21,444.21,3071.94,444.94,3073,441Z" transform="translate(-38.5 -51.5)"/>
    <path class="cls-1" d="M3746,491c50.65,7.35,87.9,36.77,102,84-5,.76-8.34-4.85-12-8C3807.62,542.57,3775,515.54,3746,491Z" transform="translate(-38.5 -51.5)"/>
    <path class="cls-1" d="M2588,573c8.45-.79,12.28,3.05,16,7C2598.18,582.13,2590,578,2588,573Z" transform="translate(-38.5 -51.5)"/>
    <path class="cls-1" d="M2802,691c-64.43-32.24-128.44-64.89-189-101,12.58-2.1,37.79,13.35,53,21,34.14,17.16,63,31.19,95,49C2775.84,668.25,2795.83,674,2802,691Z" transform="translate(-38.5 -51.5)"/>
    <path class="cls-1" d="M2282,650c-38.67,10.74-98.68,10.19-141,3C2186.35,650.35,2235.52,651.52,2282,650Z" transform="translate(-38.5 -51.5)"/>
    <path class="cls-1" d="M2257,718c1.16-.16,1.78.22,2,1,12.5,20.23,26.5,40.89,40,62,4,6.21,11.2,13.84,7,22-7.21-3.31-9.37-12.09-14-19-8.76-13.07-16.18-25-26-40C2260.36,735.4,2249.84,726.56,2257,718Z" transform="translate(-38.5 -51.5)"/>
    <path class="cls-1" d="M2236,736c1.62-.28,1.72.95,3,1,5.76,18.32,2.9,41.47,2,62-1.61,36.51-1.67,74.88-4,110-18.26-18.23-9.69-62.48-7-98,1.92-25.32,4-50,6-72v-3Z" transform="translate(-38.5 -51.5)"/>
    <path class="cls-1" d="M1778,742c8.18,12.69,15.31,26.77,22,41,6.4,13.62,15.42,28.51,14,46A272.74,272.74,0,0,1,1778,742Z" transform="translate(-38.5 -51.5)"/>
    <path class="cls-1" d="M1617,752c14.64,10.36,24.33,25.67,28,47-3,1.75-5.82-4.13-8-7-7.22-9.5-15.69-23.45-19-37C1616.83,754.84,1617.16,753.18,1617,752Z" transform="translate(-38.5 -51.5)"/>
    <path class="cls-1" d="M1675,831c16,12.38,26.93,29.74,34,51C1692.69,870,1681.47,852.86,1675,831Z" transform="translate(-38.5 -51.5)"/>
    <path class="cls-1" d="M2328,850c0.85-.18.94,0.39,1,1a1351.56,1351.56,0,0,1,119,106c12.15,12.15,26.56,22.45,35,37-16.26-3.17-27.28-18.18-39-29-23-21.26-46.45-42.12-70-64C2357.25,885.44,2337.37,872.18,2328,850Z" transform="translate(-38.5 -51.5)"/>
    <path class="cls-1" d="M2003,896c-2.3,13-15.42,23.91-30,28C1978.69,910.36,1990,902.3,2003,896Z" transform="translate(-38.5 -51.5)"/>
    <path class="cls-1" d="M1963,936c1.7,3.62-3.31,5.23-5,7-16.53,17.29-35.27,36.27-53,54-20.12,20.12-39.72,43.17-62,61-23,18.43-51.63,30.23-78,45-26.12,14.63-51.33,30.83-78,44,38.68-33,81.66-61.67,132-83-16.36-24-31-49.71-38-83,8.13,12.29,15.44,24.4,24,39,5.55,9.46,14.93,34.88,27,35,8,0.08,22.34-19.34,30-27,10.73-10.73,19.45-20.45,28-29,22-21.95,38.6-44,56-57A32.63,32.63,0,0,1,1963,936Z" transform="translate(-38.5 -51.5)"/>
    <path class="cls-1" d="M2265,998c2.69,12.21-4.52,25.45-9,37-4.61,11.9-10.38,23.5-15,35-9.45,23.54-14.3,51.16-33,66,16.64-47.36,35.21-92.79,54-138h3Z" transform="translate(-38.5 -51.5)"/>
    <path class="cls-1" d="M1437,1124c10.92,1.45,22.31,6.51,19,19C1446.3,1140,1440.59,1133.08,1437,1124Z" transform="translate(-38.5 -51.5)"/>
    <path class="cls-1" d="M1489,1149c14.06,38,30,79.26,33,125C1505.82,1237.52,1495.34,1195.32,1489,1149Z" transform="translate(-38.5 -51.5)"/>
    <path class="cls-1" d="M2188,1172c-42.45,43.55-105.53,75.13-188,82C2061.68,1225.68,2125.69,1199.69,2188,1172Z" transform="translate(-38.5 -51.5)"/>
    <path class="cls-1" d="M2469,1188c2,3.72-.35,6.28-1,10-5.25-1.41-11.74-1.59-18-2C2451.17,1188.47,2460.75,1185.25,2469,1188Z" transform="translate(-38.5 -51.5)"/>
    <path class="cls-1" d="M2418,1202c55.37,6.29,99.31,24,139,46-30.92-6.9-69.54-18.09-105-29C2439.75,1215.23,2422.2,1210.35,2418,1202Z" transform="translate(-38.5 -51.5)"/>
    <path class="cls-1" d="M935,1260c-21.05,4.29-57.81-18.42-70,1-2.15,3.42-3.51,11.52-4,17-2.33,26.1.2,64.42-2,88-0.7,7.56-2.35,17.77-11,20-0.91-14.92,3.1-34.21,4-54,1.08-23.79-1.77-49.31-2-72C865.63,1234.48,914.75,1247.68,935,1260Z" transform="translate(-38.5 -51.5)"/>
    <path class="cls-1" d="M1312,1274c17.32-.65,34.75,7.25,51,11C1343.57,1287.76,1325.47,1280.53,1312,1274Z" transform="translate(-38.5 -51.5)"/>
    <path class="cls-1" d="M2173,1280c-6.34,32.66-22.21,64.45-36,93C2138.54,1335.54,2151.66,1301,2173,1280Z" transform="translate(-38.5 -51.5)"/>
    <path class="cls-1" d="M681,1388c-43.58-4.46-94.09-25.59-139-29-17.21-1.31-38,11.25-44-5,35.95-13.71,75.7,2,113,10,12.59,2.72,26.62,5.28,39,8C661.33,1374.49,678.75,1374.06,681,1388Z" transform="translate(-38.5 -51.5)"/>
    <path class="cls-1" d="M2136,1374c-34.87,108.65-75.19,220.32-114,330-2.33,6.59-3.37,14.86-9,20-5.75-15.24,4.26-30.88,9-45C2056.26,1576.94,2087.5,1463.49,2136,1374Z" transform="translate(-38.5 -51.5)"/>
    <path class="cls-1" d="M170,1548c-43.37,14-85.79,28.88-130,42-0.19-12.53,15-13.8,25-17,21.15-6.8,41.32-12.77,64-20C143.65,1548.33,160.15,1537.74,170,1548Z" transform="translate(-38.5 -51.5)"/>
    <path class="cls-1" d="M1864,1545c6,8.63,6.85,19.79,9,30,28.94,137.27,53.75,277,79,420,3.48,19.71,13.95,43.89,0,62-30.46-158.55-59.16-320.77-88-482C1862.34,1565.7,1856.08,1553.73,1864,1545Z" transform="translate(-38.5 -51.5)"/>
    <path class="cls-1" d="M3847,1622c1.16-.16,1.78.22,2,1,2.87,15.19-10.29,25.75-18,36-23.53,31.26-46,64.53-72,94-2-14.51,9.64-25.9,17-36C3799,1685.4,3823.42,1654,3847,1622Z" transform="translate(-38.5 -51.5)"/>
    <path class="cls-1" d="M77,1722c1.7-.37,1.89.78,2,2-8.18,14.16-18.23,26.44-38,29-1.2-2.8-1.1-6.9-1-11C52,1735,65.3,1729.3,77,1722Z" transform="translate(-38.5 -51.5)"/>
    <path class="cls-1" d="M361,1944c-55.43-9.24-109.43-19.9-164-30,44.81-6.73,92.76,7.8,136,16C343.33,1932,359.07,1931.37,361,1944Z" transform="translate(-38.5 -51.5)"/>
    <path class="cls-1" d="M379,1946c1.17,0.16.84,1.82,1,3-19.64,26.09-52.6,37.09-81,52-84.86,44.55-173,94.34-258,136-5.42-11.88,6.55-14.56,13-18,78-41.63,158-83.84,237-126C320.82,1977.09,351.68,1962,379,1946Z" transform="translate(-38.5 -51.5)"/>
    <path class="cls-1" d="M544,2091a298.69,298.69,0,0,1,32,47c-5.45.78-7.79,2-13,1C557.2,2124.15,534.33,2108.38,544,2091Z" transform="translate(-38.5 -51.5)"/>
    <path class="cls-1" d="M1786,2147h-67c-53.69-2.64-103.25-9.42-151-18,123.49,7.23,269.06,7.41,389-6C1905.72,2136.72,1847.35,2143.35,1786,2147Z" transform="translate(-38.5 -51.5)"/>
    <path class="cls-1" d="M3203,52c20.87,74.49,76.67,119.3,172,116,1.79-.28,2.05.95,1,1-34.59,3.74-66.16,10.5-101,14,13.12,28.95,26.92,56.27,42,87,4,8.15,12.9,22.35,12,31-1.21,11.61-24.16,19.4-34,25-36.8,20.94-73.56,44.11-110,64,79.16,77,164.07,160.25,249,238,9.78,9,25.09,31,38,31,11.53,0,31.23-22.14,42-31,28.26-23.26,52.14-43.13,80-65,14.11-11.08,27.7-23.61,41-31,8.65-4.81,22.23-9.32,33-3-64.69,44-129,88.3-186,140,52-16.32,113.54-37.89,171-56,15.6-4.92,44.41-9.45,54-21,9.39-11.31,9.43-32.57,13-49,3.78-17.38,7.78-33.72,11-50-23.38-1.71-33.42,30.22-58,28-14.23-1.29-24.15-24.28-32-36-61.79-92.27-128.41-192.29-188-282-3.79,58.89-10.63,128.49-11,196-0.12,21.34-6.05,58.2,2,71,6.36,10.11,29.66,11.67,46,16,48.61,12.89,98,25.92,147,37-112.47,4-203.71-36.48-256-102-7.41-9.28-17.88-21.49-18-33-0.12-11.67,9.94-21.75,16-31,19-29,35.72-58,55-85q-76.92-32.09-137-81c45.53,18.47,90.81,45.85,134,70-0.43-17.31,12.53-81-1-93-12.82-11.36-36,1.8-52-1,23-2.32,40.19-10.48,55-21q117.9,180.1,235,361c14.34-13.49,54.93-20.8,77-18-5.76,3.12-7.21,19-10,32-5.06,23.52-10.06,51.28-16,74,28.49,19.84,57.77,38.9,87,58a309.13,309.13,0,0,0-148-29c-54.12,2.78-100.21,23.93-134,45,100.53,24.12,206.23,48.63,310,72,1.83,0.41,21,4.23,5,2-57.27-8-114-21.14-171-32-56.61-10.79-113.85-19.81-172-31,20.64,18.69,50.29,37,74,56,3.09,3.87,5.37-4.63,7-2,1.31,2.36.42,6.91,2,9,55.33,39.61,115.24,84,174,127,22.94,16.78,57.78,38.21,90,24-56.94,71.73-122.49,143.51-182,216,61.27-8.73,123.49-16.51,186-24-64.43,14.9-130.1,28.57-195,43,61.11,72.56,128.94,147.06,193,220-66.31-58.36-131.38-126.62-193-193,26.7,165.31,52.13,334.74,79,504,8.4,52.94,18.37,121.84-12,164a564.71,564.71,0,0,1,67,62c2.34,2.56,7.55,4.19,6,8-67.51-54.68-184.59-27.27-264-6-84.82,22.72-171,45.83-255,68-168.8,44.57-357.42,77.35-465,182,20.51-28.15,48.45-57.55,72-86a3818.3,3818.3,0,0,1-307-528c103.57,170.25,207.12,349.7,310,524,278.77-73.25,556.61-147.36,836-220-224.35-134-461.67-255-707-368-29,192.7-63.87,379.46-103,562,28.13-191.54,62.66-385.34,93-578,3.53-1.48,9.81,3.85,15,7,35.64,21.66,81.4,39.09,134,45,63.46,7.13,125.32-3.54,173-25-283.64-85.37-564.15-173.83-837-270,68.36,15.64,142.46,34.21,212,52,59.15-41.18,101.11-99.56,112-189-71,24-142.58,52.75-212,75,142.28-54.39,270.24-123.09,352-238-217.19,24.21-369.76,126.62-482,251,54.25-65.42,116.39-122.95,185-174-93.6,9.73-151.15,55.52-193,117,6.09-20.91,18-44.64,27-66-68.34-23-138.55-44.12-207-67,31.77,85.56,85.33,163.33,138,228-49.1-6.9-97.9-14.1-146-22,77.39,98.94,162.19,199.14,242,299,15.95-8,36-1.6,48,8,34.65,27.61,45.89,70,77,97,30.87,26.78,80.88,41.94,135,35,99.54-12.76,151.58-79.93,213-134-47.62,53.26-105.26,114.93-158,173-19.14,21.07-51.37,43-55,75-1.79,15.86,4.22,34.1,10,49,15.91,41,35.72,86.2,50,126q-108.82-234.68-278-409c-23.42,216.58-48.06,431.93-71,649,3.91-234.1,28.56-456.1,64-662-156.76,78.83-316.5,163.31-475,243-33.23,16.71-60,34.19-72,71-11.7,36-14.94,79.57-18,126-2.94,44.61-1,91.68,9,132,13.1-8.83,23.72-20.72,35-32,123.65-123.64,260.46-239.83,379-370,37.86-41.57,75.71-82.28,112-126,4.57-5.51,7.72-14.54,16-16,3.46,18.83-13.77,31.28-24,43-157.52,180.57-334.29,347.48-517,504,9.14,38.55,33.13,74.88,55,96-142.49-46.18-265.29-112-377-189,106.52,62.15,230.91,115.09,347,171-36-29.24-56.08-79.45-51-146,4.33-56.83,20-123.59,15-184-8.81-105.81-50.5-185.7-105-247-5.43-6.11-23.19-19.11-25-25,0.86,2.79,16.09,12.71,21,17,8.22,7.19,14,13.24,21,19,122.88-132.45,237.32-273.35,351-415,45.67,8.33,90.07,17.93,136,26-57.17-131.13-152.72-250.78-260-342-5.11-4.35-20.08-17.95-22-18-4.57-.13-17.27,14.82-21,18-22.34,19-41.93,34.38-63,54,23.81-28.86,55.46-58.54,82-88,13.21,9.46,27.13,18.2,40,28,35.63-41,69.09-84.24,103-127-28.52,46.15-63.71,94.29-95,141,26.52,31.15,60.72,54.61,94,79,110.64-93.7,157-251.63,257-356-27.24,47.69-56.51,95.44-86,143s-61.59,94.12-85,146c-39.46,10.88-42,58.63-82,69,70.48,46.19,152,81.31,252,98-7.24-160.92.64-325.52,17-472-80.27,37.39-140.83,103.17-172,193,3.78-28.23,14.4-58.26,20-88-21.95.39-54.39-1.05-78,1q126.14-31.36,201-114c-198.07,48.27-382.21,110.45-559,180,1.27,8.51,1.46,23.06,1,30-3.23-8.22-12.12-12.41-19-17-20.38-13.59-42.69-28-64-42-2,114.67-5.92,227.41-8,342,0.41,3.61-1.83,1.37-1-1v-16c-2.21-107.13-2.57-216.1-5-323-47.83,31.84-92.37,75.63-129,122,7.47,19.2,15.81,37.52,23,57-13.94-24.39-30.93-45.73-53-62-3.43,1.48-6.84,12.81-9,9,3.46-10.25,10.29-11,16-19,0.15-4.69-4.05.49-5-2,11.9-13.24,26.11-28.95,40-44,2.63-2.85,12.94-12.95,4-4-12.34,16.32-25.86,31.47-38,48,39.23-4.42,58.55-33.62,81-63,18.41-24.09,59.95-67.92,100-50,12.07,5.4,15.29,16.34,31,19,34.13,5.79,66.14-12.29,97-22q217.16-68.32,435-137c24.73-7.78,54.17-14.18,73-25,28.93-16.62,51.24-64.15,69-93,61.65-100.15,125.82-200.12,186-299,47,49.59,92.67,100.55,140,154,2.91,3.29,9,10,9,10,1.63,0.19,13.22-10.5,19-15l131-102q80-62.28,152-120h1Zm384,753c-3-20.32-5.3-52.72-12-66-7.91-.21-14.43,6.64-20,11-190,148.56-369.21,304.15-546,466-4.72,4.32-17,16.71-17,17,0.06,0.73,11.09,8.45,16,12,83.41,60.35,172.18,120.76,250,180-97.25-57.49-200.17-124.43-286-198-10.63-9.12-27.54-28.48-39-31-16.67-3.67-36.55,6.63-51,12-48.69,18.07-93.37,34.84-139,52,43.83-28.51,94.65-50,152-65-9.27-8.47-22-17.4-36-27-8.08-5.52-30.63-24.75-42-24-9.84.65-21.23,18.17-28,26-26,30.11-52.18,59.38-75,88,178.78,70.47,361.92,130.88,560,178,52.35,12.45,82.72,36.76,121,63,110.34,75.65,222.32,151.3,330,224C3680.54,1420.12,3631.36,1109,3587,805ZM2945,269c-10,7.79-33.48,21.27-34,31-0.34,6.39,7.9,15.36,13,22,26.65,34.69,52.69,64.77,80,95,11.22,12.42,21.69,25.14,34,34,51.68-128.31,108.33-257,159-383C3116.5,131,3028.1,204.11,2945,269Zm212-78c-32.76,76.38-62.44,146.67-93,226-18.05,46.87-43.56,98.94-31,155,33-80.3,67.62-159,112-228,15.21,56.14,77.6,15.19,108-3,25.19-15.07,48-29.62,66-42-36.33-75.34-72-151.33-113-222C3190.3,115.12,3173.39,152.78,3157,191ZM3033,463c-93.12-107.88-184.88-217.12-279-324-71.72,109.94-140.14,222.39-206,340-9.2,16.44-26.85,37.72-23,56,1.41,6.68,12.44,15.88,21,24,112.76,107,226.55,210.61,337,317,3.69,3.55,8.07,9.4,11,8-24.25-46.63-46.9-95.21-66-149-19.46-54.8-27.38-114.5-34-181-12.8-128.52-25-265.32-37-392,28.33,111.4,31.77,253.41,48,388,11.84,98.17,31.17,186.12,66,261,11.41,24.53,24,52.5,41,68,17.55,16,56.64,22.64,69-2-41.84-52.16-86.44-101.56-129-153,40.31,42.46,84.13,83.72,123,126,5.43,5.9,11.2,15.31,21,15,10.48-119.85,16.47-244.19,25-366-61.21,56.45-124.26,119.74-185,180-2.08,1.12-2.12,1.08-1-1C2901,606.36,2968.08,535.75,3033,463Zm401-166c-1.43-.24-1.69-1.65-3-2,0,1.32-1.75.91-2,2-8.61,12.49-17.46,27.88-29,46-8,12.64-27.17,34.51-26,48,1.06,12.24,19,24,27,32,7.79,7.79,14.69,15.75,22,22,1.72,1.47,4.37,5.76,7,4C3430.29,398.56,3437,344,3434,297Zm-289,68c-0.05-1.05-1.28-.79-1,1-5.3,96.52-12.23,202.94-17,304-0.95,20.07-12.12,85.74,1,96,5.71,4.47,24.8,3.1,39,2,94.92-7.35,192.27-13.44,282-19-74.44,13.32-155.41,23.58-241,27-21.1.84-69.61,6.33-87-1-12.68-5.34-18.52-25-26-39-23.95-44.75-45.38-86.73-68-129-9.7,76.3-14,158-15,243,12.28-22.71,54.36-36.13,85-21,10.5,5.18,17.37,18.9,28,23,18.87,7.28,42.28-4.55,60-10,115-35.37,240.56-71.18,341-114C3399.08,610.91,3268.47,488.87,3145,365Zm-13,27c-10.6,5.73-20.82,34.28-28,50-15.79,34.56-31.48,67.71-46,100-6.8,15.13-20.63,39.51-20,53,0.59,12.51,11,26,17,38,19.42,38.63,35.27,77.16,56,111,8.5-11.34,5-27.62,5-42,0-100.89,7.7-201.26,18-291,0.65-5.63,4.56-14.19-1-19h-1ZM2845,858c-104.27-102.19-212.33-201.53-317-302-0.05-1.05-1.28-.79-1,1-15.16,142.51-21.87,293.46-23,450,126.05-37.28,252.28-74.38,384-106C2876.07,884.66,2859.46,872.17,2845,858Zm310,4c4.91,13.56,20.71,16.93,32,23,24.92,13.4,45.16,26,71,40,8.87,4.79,28,18.5,38,18,8.32-.42,24.8-16.22,33-23,53.27-44,103.57-85.94,155-128,21.07-17.23,46.22-30.91,59-54h-2C3416.52,783.53,3285.62,822.62,3155,862Zm489,235c19.37-6.87,30.36-25.3,43-39,32.67-35.4,65.89-70.92,97-108,4.54-5.41,17.47-18.28,17-24-0.5-6.12-17.37-16.8-24-22-61.68-48.44-122.61-96.74-183-143,0-.55-0.81-1.13-1,0C3611.19,871.81,3625.07,986.93,3644,1097ZM3024,852c-45.27,45.26-97.45,92.45-142,137-18.5,18.5-39.61,36.72-53,59-6.77,11.27-13.41,28-13,44,0.91,35.21,28.78,53.94,52,69,11.53,7.48,28.09,21.8,43,17,9.83-3.16,17.34-26.87,23-40,42.16-97.85,82.13-192.48,123-289,2.81-6.64,9-14.15,6-22C3049,823.84,3034.73,841.27,3024,852Zm107,14c-14.84-8.43-40.7-27.66-54-24-51,110-98.18,223.82-148,335,116.33-76.34,233.14-152.19,348-230C3232.89,922.16,3178.58,893,3131,866Zm-187,321c11,4.39,22,35.12,37,35,8.37-.06,24.64-18.28,31-24,50.33-45.28,98.79-89,147-132,20.22-18,43-33.18,56-56-0.16-1.18.17-2.84-1-3C3121.35,1064.36,3029.71,1122.71,2944,1187Zm-499,212c-63.23-79.33-127.58-158.09-191-236-116.28,134.06-234.42,274.92-350,413,25.55,40.31,49.69,81.76,75,124,6.08,10.14,17.6,37.44,29,38,6.15,0.3,18-11.39,24-18,34.94-38.16,71.57-73,105-109,14.19-15.27,30.55-28.46,41-45,11.18-17.71,12.1-41.73,16-67,7.44-48.18,14.1-98.16,21-145,9.81-66.65,15.84-130.9,40-180-18.37,125.63-35.33,252.68-54,378,31.93,13.56,71.17,34.84,113,24,16.49-4.28,32.55-15.51,49-24,47.93-24.75,98.24-52.44,144-75C2489.05,1449.42,2465.79,1425.08,2445,1399Zm1236,379c9.43,4.49,30.48,16,38,15,13.23-1.84,17-19.82,16-30-1.8-17.84-21.34-31.32-38-43-98.67-69.16-193.48-133.58-291-201-23.74-16.41-44-37.39-78-34-58.43,5.82-105.88,24-167,32C3328.7,1608.43,3504.37,1693.91,3681,1778ZM2247,1579c-18.23-4.85-40.54-12.48-52-9-41.28,40.9-83.71,82.71-124,123-5.87,5.87-14,11.82-15,21,78.52-38.81,149-85.71,233-119C2281.48,1585.84,2263.25,1583.33,2247,1579Zm448,51c11.82,16.27,28.72,35.25,44,53,10.49,12.18,17.88,21.66,33,10,7.77-6,14.38-16.52,22-25,18.71-20.82,40.22-42.43,58-62,3.54-3.9,9-9.72,8-12Q2777.57,1612.07,2695,1630Z" transform="translate(-38.5 -51.5)"/>
    <path class="cls-1" d="M39,1830c8-32.69,22.87-63.8,44-80-11.24,30.43-24.45,58.89-44,81v-1Z" transform="translate(-38.5 -51.5)"/>
    <path class="cls-1" d="M3810,657c13.2,3.8,26.45,16.21,39,24C3836.84,676.16,3823.41,663.92,3810,657Z" transform="translate(-38.5 -51.5)"/>
    <path class="cls-1" d="M1540,1107c28.57,23.76,66.44,38.23,110,47,0.42-98.66,3.6-203.83,13-295,0.18-1.74.59-2.09,1-1-2,98.64-4.69,196.65-7,295,108.78,25.22,210.5,57.5,302,100-33.73-.66-63.6-8.18-91-19-27.13-10.71-48.54-28.22-72-39-53-24.35-135.93-16.66-178,15,6.29-10.71,19.05-23.61,26-37-67.31-27.68-134.61-66.4-230-60-48.38,3.24-81.41,24.84-111,50-86.25,73.34-178.39,150.1-261,222,7.11,20.55,16.52,38.81,24,59-15.67-21-30.29-43-46-64,92.08-66.92,180.69-137.31,265-212a3375.74,3375.74,0,0,0-297,162c10,16.63,22.08,31.25,32,48-15.19-13.14-30.72-25.94-45-40-40.24,29.76-80.95,59.05-120,90,54.35,6.32,105.83,15.51,160,22-8.24-29.09-18.08-56.58-27-85,18.36,35,40.94,71.06,60,102-71.07-15.22-146.77-32.74-227-23-74.57,9.06-127.33,41.4-167,89-38.27,45.92-71.83,99-106,150-34.77,51.92-69,103.65-103,153,182.62-136.73,382.52-256.13,602-356-173.48,93.93-350.33,197.18-515,307-26.16,17.45-55.43,35.76-80,57s-49.68,47.26-50,87c156.87-76.12,321-153.63,494-217q-225.72,104.28-452,208c31.95,49.05,63.76,98.24,96,147-16.84,23.83-42.22,49.76-58,68a163.46,163.46,0,0,1,44-67,653.42,653.42,0,0,0-125-116c-6.23,61.1-12,122.68-18,184-7.37-88,1.1-180.85,17-255-96.79-48.87-195.4-95.93-293-144,9.63,51.7,23.35,108,34,162q67.46-14.54,146-18c-89.76,14.91-156.58,52.76-205,109,15-27.3,38.66-54.67,56-83-35.39,5.94-71.54-2.56-97-13,28.22-.88,61.34,2,92,2-15.84-28.14-31.55-61.92-34-105-5.78-101.62,39.87-176.72,86-229-20.9,38-40.53,75.72-61,118-4.27,8.81-20.44,31.21-18,41,1.81,7.23,25.9,14.92,36,20,85,42.73,175.15,87.06,259,128,18.52-12.29,33.34-30.11,31-61-2.06-27.21-11.47-56.42-17-86-15.9-85.12-30.7-178.2-41-267-42.6,19.5-82.26,42-126,64-10.47,5.26-37.79,13.58-40,23-2.83,12.11,16.23,30.89,23,41,58.37,87.16,121.91,182.74,176,267-17.15-2.5-23.12-21.23-31-33-58.46-87.3-120-178-178-267-4.71-3-9.41,12.16-12,8,2.53-4.14,5.55-7.78,7-13,2.64-2.65,2.11,3,5,3,46.23-47.77,104.13-83.87,168-114-20.86-8.34-44.73-16-69-24-7.37-2.44-19.21-6.8-25-5-7.47,2.33-14.1,22.75-18,30-11.9,22.14-22.84,39.91-35,61-5.29,9.18-8.92,23.46-22,25,13.72-29.68,31.95-62,49-93,8.31-15.12,15-27.56,27-39,3.15-3,6.39-7.54,9-9,10.87-6.09,36.12-5.19,51-7,50.46-6.15,102-14.07,153-19-11.34,11.66-31.23,10.32-48,13-49.79,8-110.21,12.7-161,21,6.55,12.77,24.52,13.75,39,18,21.31,6.26,44.39,10.21,57,24,22.37-10.3,44.72-20.62,68-30,2.08-1.12,2.12-1.08,1,1-29.81,28.18-49,68.6-52,121-6.1,107.33,58.9,176.83,51,285,67.73-78.43,130.84-170.9,186-268,27.11-47.72,50.41-101.86,78-150,27.3-47.64,61.91-92.56,119-109-61.19,34.63-112.47,87.84-131,169,47.59-50.74,97.34-108,145-162-38.21,54.45-83.43,110.57-124,166,113.56-14.44,191.38-64.62,255-129-9.91-15.43-21.27-29.4-31-45-24.39,34.61-46.4,71.6-70,107,7.95-40.15,30.39-71.78,57-97,8.86-8.4,16.58-18,27-24-0.1,2.57-3.9,1.43-4,4,6.05,17.89,15.9,41.15,38,41,12.84-.09,32.12-15.93,44-23,70.17-41.74,143.08-79.82,218-115,30.91-14.51,64-23.87,85-48-126.22,46.78-252.23,93.77-379,140,115-88.19,307.38-91.56,425-174,58.31-40.87,89.65-111.7,125-175,36.39-65.18,71.26-128.76,107-192,26.68,8.32,49.26,20.74,66,39-20.46-8.54-42.08-15.92-63-24-64.64,115-127.35,232-191,348,28.58,14.7,71.22,23.91,114,18,25.82-110.18,67.88-204.12,123-285C1622.56,914.9,1579.64,1012,1540,1107ZM456,1964c-8.21-11.72-18.22-28.85-28-31-10.92-2.4-21.65,4.16-20,13,0.76,4.08,11.73,10.59,16,14,7.12,5.68,12.41,10.36,17,14,13,10.35,21.7,19.8,37,25C474.49,1988.9,464.77,1976.53,456,1964Z" transform="translate(-38.5 -51.5)"/>
    <path class="cls-1" d="M2329,790c2.32-16.26,2.87-33.72,10-45,1.43-2.27-3.63,14.27-5,20C2332,773.36,2330.85,781.85,2329,790Z" transform="translate(-38.5 -51.5)"/>
    <path class="cls-1" d="M1925,748c-4.33,48.67-33.13,81.54-69,102C1875.73,816.73,1903,782.31,1925,748Z" transform="translate(-38.5 -51.5)"/>
    <path class="cls-1" d="M2204,1164q-178.93-47.07-358-94c64.4,0,118.7,20.92,174,36s110.56,27.73,167,44c-21.59-102.24-55.3-207.7-77-311-0.33-1.58-1.06-10.34,0-4C2141.9,944.1,2172.56,1054.45,2204,1164Z" transform="translate(-38.5 -51.5)"/>
    <path class="cls-1" d="M1726,874c4.24,5.42,6.2,13.13,9,20C1731.8,891.52,1728.92,880.09,1726,874Z" transform="translate(-38.5 -51.5)"/>
    <path class="cls-1" d="M3855,881c1.1,3.79-5.69,8.29-8,12C3845.8,889.11,3853.14,885.16,3855,881Z" transform="translate(-38.5 -51.5)"/>
    <path class="cls-1" d="M1835,1081c52.87,53.8,110.9,116.44,161,173h-26c-2.12.32,1.43,3.09,2,4-2.83,2.11-6.7-3.26-11-3,0.43-2.24,4.93-.41,7-1C1923.85,1196.15,1880.08,1137.92,1835,1081Z" transform="translate(-38.5 -51.5)"/>
    <path class="cls-1" d="M2832,1083c4.7-2.33,7.49,4.49,10,7,23.07,23.07,46.07,52.66,64,81-22.09-14.89-42-39.74-60-63C2840.35,1100.71,2831.75,1092.82,2832,1083Z" transform="translate(-38.5 -51.5)"/>
    <path class="cls-1" d="M2427,1174c4.18-27.15,16.94-54.39,31-75-0.05-.32.06-0.68,0-1,1.31,6.6-10,25.18-15,37C2436.71,1149.84,2431.05,1163.42,2427,1174Z" transform="translate(-38.5 -51.5)"/>
    <path class="cls-1" d="M1382,1126c-29.7,39.3-65.6,81.06-98,121,7,10.3,15,19.64,27,25-7.32,1.68-16.62,1.38-24,3,28.9,85.77,63,175,87,269-91.71-25.62-190.71-49.29-279-75q132.44,28.56,266,56c-27.3-86.7-60.23-176.44-90-264-63.79,61.88-126.68,133.32-183,206q-11.24,1.26-16,9c23.12,106.55,44.42,214.91,60,329,39.38-14.46,41-67.51,74-83,11.58-5.44,23.26-1.73,36,3,7.14,2.65,17.16,7.16,25,6,10.1-1.49,17.53-18.7,23-27,7-10.64,14.11-20,19-30-5.08,15.59-15.09,34.9-16,58,12.3,7.87,27.92,12,46,12,70.2,0.18,118.41-47.14,161-84,52-45,103.58-85.23,198-80,26.68,1.48,46,7.57,69,16-52.1,2.57-109.71-.38-162,2,12.4,61.26,30,126,44,189,61.8-81.21,123.83-170.83,185-256-56.07,89.59-118.43,181.57-177,272,80.47,76.2,163.13,150.21,245,225-36.47-26.53-82-52.68-134-67,30,24.67,66.81,51.19,100,76-71.87-45.79-155.47-88.53-255-110q-38.41,95.59-74,194c8,2.71,17,4.35,26,6-7.19,2.17-16.87-1.79-26-1-4.85,1,.38-5.59-2-5-49.9-11.1-94.14-27.86-138-45,40.83,10.17,84.5,26.17,126,39,23.16-57.84,43.77-118.23,66-177-66.27,48.4-144.21,93.79-235,121-50.25-107.09-100.72-213.95-150-322-89.5,118.17-177.65,237.68-268,355,139.23-10.78,277.72-22.28,417-33-67.62,24.52-154,33-249,33-91.84,0-180.87,5.25-232,49,69.94-81.06,142-168.66,208-257-53-57-108-112-162-168-67.81,141.19-137.08,280.92-204,423C862.93,1730.3,1095.65,1398.59,1382,1126Zm-321,375c-12.61,20.33-31.25,55-46,80-5.12,8.68-15,21.34-15,27-0.06,6.94,9.84,18,15,27,33,57.34,58.89,108,88,170,2.53,5.39,10.33,26.32,17,26,12.32-.59,3.54-28.49,2-37-18-99.08-38.43-196.68-55-294-1,0-1.19-.81-2-1C1064.12,1499.87,1061.44,1500.3,1061,1501Zm340,246c-3.46,3-10,7.4-8,10,82.41,14.25,163.42,29.92,246,44-9.48-46.41-22.44-103.14-33-153-2.79-13.16-4.53-45.22-17-46C1531.34,1653.16,1458.41,1696.78,1401,1747Zm-441-80c-6.82,11.11-24.91,30.84-24,44,0.5,7.24,10.52,14.52,17,21,35,35,62,64,96,98,10.47,10.47,28.53,35.48,44,34,12.16-1.16,17.69-15.06,14-30-2.81-11.37-12.94-23.06-17-30-36-61.53-57.23-130.23-100-181-1,0-1.19-.81-2-1-0.61.06-1.18,0.15-1,1C977.33,1638.5,971.35,1648.5,960,1667Zm463,337c63-66.26,135.1-129.63,206-187,1.35-1.09,4.73-2.36,4-5-137.75-26.58-277.18-51.49-415-78,46.43,109.24,96.79,214.54,148,319,61.15-36.33,123.61-71.67,186-109,20.4-12.21,45.05-28.37,71-28,18.31,0.26,32.61,8.6,49,13,41.43,11.12,83.65,19.93,131,24-47.14-48.19-103.65-95.68-158-140-68.29,69-144.45,135.55-223,191h1Z" transform="translate(-38.5 -51.5)"/>
    <path class="cls-1" d="M1467,1144c4.36,24.75-.44,56.1-10,75,0,0-1.65,4.75-3,2C1459,1196,1463.41,1170.41,1467,1144Z" transform="translate(-38.5 -51.5)"/>
    <path class="cls-1" d="M2566,1152c3.24-.62-6.61,2.77-10,4-13.1,4.74-28.93,12.59-43,15-3.73.64,6.86-2.88,10-4C2536.33,1162.27,2551,1154.84,2566,1152Z" transform="translate(-38.5 -51.5)"/>
    <path class="cls-1" d="M1616,1211c-12.4,14.6-28.13,25.87-43,38C1581.59,1234.59,1599.26,1220.59,1616,1211Z" transform="translate(-38.5 -51.5)"/>
    <path class="cls-1" d="M1445,1380c23.67-25.33,45.27-52.73,67-80-27.79-6.64-66-4.51-90,4,7.42,13.74,18.45,37.33,15,62-4.15-46.85-36.17-65.83-73-80,45.85-4.15,72.22-27.78,89-61-0.75,20.59-6.85,44.48-10,66,53.64-2.7,94-18.68,127-42-7.19,13.48-20.35,29.65-26,48,120.78-15.89,246-27.33,379-31-91.73,11.32-186.29,20.94-280,31-31,3.32-61.48,5.79-90,13-109.71,27.75-137.66,137.44-161,253,180.11-96.55,368.07-193.94,564-278-106.89,57.57-221.36,111.58-331,170-108.64,57.88-229.39,101.71-302,198,36.48-65.78,71.93-140.33,99-223,3.67-11.2,11-27,10-36-1.23-10.71-19.4-22.61-28-30-30.69-26.35-66.34-55-92-78C1357,1316.65,1400.49,1348.84,1445,1380Z" transform="translate(-38.5 -51.5)"/>
    <path class="cls-1" d="M499,1378c-17.18,8.49-36.81,14.52-54,23C455.15,1389.48,475.68,1379.68,499,1378Z" transform="translate(-38.5 -51.5)"/>
    <path class="cls-1" d="M40,1667c17.35,9.32,29.76,23.57,42,38C66.78,1697.55,43.76,1689.24,40,1667Z" transform="translate(-38.5 -51.5)"/>
    <path class="cls-1" d="M367,1884c-20.31.81-55.78-2-73-1C317.06,1879.4,344.42,1881.4,367,1884Z" transform="translate(-38.5 -51.5)"/>
    <path class="cls-1" d="M3796,1897c22.29,12.71,40.71,38,51,66-5.49-3.33-8-10.11-12-16A493.56,493.56,0,0,0,3796,1897Z" transform="translate(-38.5 -51.5)"/>
    <path class="cls-1" d="M2885,2022c-16.09-37.91-30.9-77.1-46-116C2856.33,1942.67,2871.37,1981.63,2885,2022Z" transform="translate(-38.5 -51.5)"/>
    <path class="cls-1" d="M77,1996c-7.47,14.2-21.37,30.63-31,46C52.07,2026.4,66.08,2010.09,77,1996Z" transform="translate(-38.5 -51.5)"/>
    <path class="cls-1" d="M1906,2033c9.73,4.94,20.57,17.43,30,26C1927,2053.32,1916.23,2040.78,1906,2033Z" transform="translate(-38.5 -51.5)"/>
    <path class="cls-1" d="M1876,2044c15.08,7.92,31.62,23,47,34C1908.19,2069.8,1891.52,2054.81,1876,2044Z" transform="translate(-38.5 -51.5)"/>
  </g>
</svg>
