<svg id="Layer_2" data-name="Layer 2" xmlns="http://www.w3.org/2000/svg" viewBox="0 0 950.93 290.83"><defs><style>.cls-1{fill:#0a243f;}.cls-2{fill:#fff;}</style></defs><title>nameLogo</title><rect class="cls-1" width="950.93" height="290.83"/><path class="cls-2" d="M192.67,191.66L164,262.76a6.1,6.1,0,0,0-.34,2.07,5,5,0,0,0,.71,2.82,1.31,1.31,0,0,0,1,.68c0.76,0,1.18-.85,1.41-1.43l28.64-71.1a6.1,6.1,0,0,0,.34-2.07,5,5,0,0,0-.71-2.82,1.31,1.31,0,0,0-1-.68c-0.76,0-1.18.85-1.41,1.43h0Z" transform="translate(-9.07 -69.23)"/><path class="cls-2" d="M194.82,189.38a5.9,5.9,0,0,0,.38,4.89l46,80,3.55,6.18a1.32,1.32,0,0,0,1,.68,1.86,1.86,0,0,0,1.41-1.43,5.9,5.9,0,0,0-.38-4.89L203.22,199l-6-10.34a1.32,1.32,0,0,0-1-.68,1.86,1.86,0,0,0-1.41,1.43h0Z" transform="translate(-9.07 -69.23)"/><path class="cls-2" d="M194.61,193.07a4.37,4.37,0,0,0-.63,1.72,5.75,5.75,0,0,0,.25,3.18q21.18,44.33,42.35,88.66l2.46,5.16a2.53,2.53,0,0,0,.86,1.25,1.14,1.14,0,0,0,1.59-.5,4.37,4.37,0,0,0,.63-1.72,5.75,5.75,0,0,0-.25-3.18L205.26,211l-8.21-17.18a2.53,2.53,0,0,0-.86-1.25,1.08,1.08,0,0,0-.55-0.16,1.35,1.35,0,0,0-1,.66h0Z" transform="translate(-9.07 -69.23)"/><path class="cls-2" d="M245.86,277.51l-5.49,12.07a6.11,6.11,0,0,0-.34,2.07,5,5,0,0,0,.71,2.83,1.31,1.31,0,0,0,1,.67c0.78,0,1.15-.86,1.41-1.43l5.49-12.07a6.11,6.11,0,0,0,.34-2.07,5,5,0,0,0-.71-2.83,1.31,1.31,0,0,0-1-.67c-0.78,0-1.15.86-1.41,1.43h0Z" transform="translate(-9.07 -69.23)"/><path class="cls-2" d="M204,234.64l-26.8,4.41c-1.47.24-1.75,2.31-1.75,3.5a6.11,6.11,0,0,0,.34,2.07c0.18,0.47.7,1.55,1.41,1.43l26.8-4.41c1.47-.24,1.75-2.31,1.75-3.5a6.11,6.11,0,0,0-.34-2.07c-0.17-.45-0.64-1.44-1.31-1.44H204Z" transform="translate(-9.07 -69.23)"/><path class="cls-2" d="M320,182.67l-62.56,7.38c-1.47.18-1.75,2.38-1.75,3.5a6.12,6.12,0,0,0,.34,2.07c0.19,0.5.68,1.52,1.41,1.43L320,189.67c1.47-.18,1.75-2.37,1.75-3.5a6.12,6.12,0,0,0-.34-2.07c-0.18-.48-0.64-1.43-1.32-1.43H320Z" transform="translate(-9.07 -69.23)"/><path class="cls-2" d="M255.66,192.88a4.94,4.94,0,0,0-.72,2.82,6,6,0,0,0,.34,2.07,1.87,1.87,0,0,0,1.41,1.43l4.24,0.27h0l59.5,3.84a1.31,1.31,0,0,0,1-.68,4.94,4.94,0,0,0,.72-2.82s0-.09,0-0.13a6,6,0,0,0-.34-1.93,1.87,1.87,0,0,0-1.41-1.43l-63.75-4.11a1.31,1.31,0,0,0-1,.68h0Z" transform="translate(-9.07 -69.23)"/><path class="cls-2" d="M319.9,197a4.94,4.94,0,0,0-.72,2.82,6.1,6.1,0,0,0,.34,2.07,1.88,1.88,0,0,0,1.41,1.43l6.4,0.41h0l0.77,0h0l0.8,0.05a1.3,1.3,0,0,0,1-.68,4.94,4.94,0,0,0,.72-2.82,6.1,6.1,0,0,0-.34-2.07,1.88,1.88,0,0,0-1.41-1.43l-1.54-.1h0l-6.45-.41a1.3,1.3,0,0,0-1,.68h0Z" transform="translate(-9.07 -69.23)"/><path class="cls-2" d="M317.1,185.1a6.1,6.1,0,0,0-.34,2.07,4.9,4.9,0,0,0,.71,2.82l8.14,10.77a1.31,1.31,0,0,0,1,.68,1.86,1.86,0,0,0,1.41-1.43,6.1,6.1,0,0,0,.34-2.07,4.9,4.9,0,0,0-.71-2.82l-8.14-10.77a1.31,1.31,0,0,0-1-.68,1.86,1.86,0,0,0-1.41,1.43h0Z" transform="translate(-9.07 -69.23)"/><path class="cls-2" d="M318.17,186.51a6.08,6.08,0,0,0-.34,2.07,4.9,4.9,0,0,0,.71,2.82l7.82,10.34a1.3,1.3,0,0,0,1,.68,1.86,1.86,0,0,0,1.41-1.43,6.08,6.08,0,0,0,.34-2.07,4.9,4.9,0,0,0-.71-2.82l-7.82-10.34a1.3,1.3,0,0,0-1-.68,1.86,1.86,0,0,0-1.41,1.43h0Z" transform="translate(-9.07 -69.23)"/><path class="cls-2" d="M317.14,184.56a6.1,6.1,0,0,0-.34,2.07,4.92,4.92,0,0,0,.72,2.83l9.9,13.23a1.32,1.32,0,0,0,1,.68,1.86,1.86,0,0,0,1.41-1.43,6.1,6.1,0,0,0,.34-2.07,4.92,4.92,0,0,0-.72-2.83l-9.22-12.32a1.52,1.52,0,0,0-.2-0.26l-0.49-.65a1.32,1.32,0,0,0-1-.68,1.86,1.86,0,0,0-1.41,1.43h0Z" transform="translate(-9.07 -69.23)"/><path class="cls-2" d="M255.48,192.88a5,5,0,0,0-.71,2.82v16a6.1,6.1,0,0,0,.34,2.07,1.87,1.87,0,0,0,1.41,1.43,1.32,1.32,0,0,0,1-.68,5,5,0,0,0,.71-2.82v-16a6.1,6.1,0,0,0-.34-2.07,1.87,1.87,0,0,0-1.41-1.43,1.32,1.32,0,0,0-1,.68h0Z" transform="translate(-9.07 -69.23)"/><path class="cls-2" d="M256.6,211.18a4.94,4.94,0,0,0-.72,2.82c0,1.2.29,3.24,1.75,3.5l55,9.8a1.3,1.3,0,0,0,1-.68,4.94,4.94,0,0,0,.72-2.82c0-1.2-.29-3.24-1.75-3.5l-55-9.8a1.3,1.3,0,0,0-1,.68h0Z" transform="translate(-9.07 -69.23)"/><path class="cls-2" d="M306.39,220a5,5,0,0,0-.71,2.82c0,1.2.28,3.24,1.75,3.5l6.13,1.09,0.62,0.11h0l2.44,0.43,11.92,2.13,2.49,0.44h0l5.85,1a1.32,1.32,0,0,0,1-.68,5,5,0,0,0,.71-2.82c0-1.2-.28-3.24-1.75-3.5l-6.42-1.15-13-2.31-3.95-.7-6.13-1.09a1.32,1.32,0,0,0-1,.68h0Z" transform="translate(-9.07 -69.23)"/><path class="cls-2" d="M334.95,226.66l-16.07,35.51a6,6,0,0,0-.34,2.07,5,5,0,0,0,.71,2.82,1.32,1.32,0,0,0,1,.68c0.78,0,1.15-.86,1.41-1.43l16.07-35.51a6,6,0,0,0,.34-2.07,5,5,0,0,0-.71-2.82,1.32,1.32,0,0,0-1-.68c-0.78,0-1.15.86-1.41,1.43h0Z" transform="translate(-9.07 -69.23)"/><path class="cls-2" d="M334.1,226.09a5,5,0,0,0-.71,2.83v36.42a6.12,6.12,0,0,0,.34,2.07,1.87,1.87,0,0,0,1.41,1.43,1.32,1.32,0,0,0,1-.67,5,5,0,0,0,.71-2.83V228.92a6.12,6.12,0,0,0-.34-2.07,1.87,1.87,0,0,0-1.41-1.43,1.32,1.32,0,0,0-1,.67h0Z" transform="translate(-9.07 -69.23)"/><path class="cls-2" d="M335,225.94a5,5,0,0,0-.71,2.82v35.46s0,0.09,0,.13a6.08,6.08,0,0,0,.34,1.93,1.87,1.87,0,0,0,1.41,1.43,1.31,1.31,0,0,0,1-.68,5,5,0,0,0,.71-2.82V239.35s0-.09,0-0.14V228.76a6.08,6.08,0,0,0-.34-2.07,1.87,1.87,0,0,0-1.41-1.43,1.31,1.31,0,0,0-1,.68h0Z" transform="translate(-9.07 -69.23)"/><path class="cls-2" d="M335,225.29a5,5,0,0,0-.71,2.82v24.71a6.08,6.08,0,0,0,.34,2.07,1.87,1.87,0,0,0,1.41,1.43,1.31,1.31,0,0,0,1-.68,5,5,0,0,0,.71-2.82V228.12a6.08,6.08,0,0,0-.34-2.07,1.87,1.87,0,0,0-1.41-1.43,1.31,1.31,0,0,0-1,.68h0Z" transform="translate(-9.07 -69.23)"/><path class="cls-2" d="M335.07,225.13a5,5,0,0,0-.71,2.82v21.18a6.08,6.08,0,0,0,.34,2.07,1.87,1.87,0,0,0,1.41,1.43,1.31,1.31,0,0,0,1-.68,5,5,0,0,0,.71-2.82V228a6.08,6.08,0,0,0-.34-2.07,1.87,1.87,0,0,0-1.41-1.43,1.31,1.31,0,0,0-1,.68h0Z" transform="translate(-9.07 -69.23)"/><path class="cls-2" d="M335.07,226.1a5,5,0,0,0-.71,2.82v33.7a6.08,6.08,0,0,0,.34,2.07,1.87,1.87,0,0,0,1.41,1.43,1.31,1.31,0,0,0,1-.68,5,5,0,0,0,.71-2.82v-33.7a6.08,6.08,0,0,0-.34-2.07,1.87,1.87,0,0,0-1.41-1.43,1.31,1.31,0,0,0-1,.68h0Z" transform="translate(-9.07 -69.23)"/><path class="cls-2" d="M335.71,227.06a5,5,0,0,0-.71,2.82v35.95a6.1,6.1,0,0,0,.34,2.07,1.87,1.87,0,0,0,1.41,1.43,1.32,1.32,0,0,0,1-.68,5,5,0,0,0,.71-2.82V229.88a6.1,6.1,0,0,0-.34-2.07,1.87,1.87,0,0,0-1.41-1.43,1.32,1.32,0,0,0-1,.68h0Z" transform="translate(-9.07 -69.23)"/><path class="cls-2" d="M334.76,263.53l-24.55,10.7a2.53,2.53,0,0,0-.86,1.25,6.21,6.21,0,0,0-.25,3.17,4.43,4.43,0,0,0,.63,1.72l0.48,0.5a0.94,0.94,0,0,0,1.11,0l24.55-10.7a2.53,2.53,0,0,0,.86-1.25,6.21,6.21,0,0,0,.25-3.17,4.43,4.43,0,0,0-.63-1.72l-0.48-.5a0.94,0.94,0,0,0-1.11,0h0Z" transform="translate(-9.07 -69.23)"/><path class="cls-2" d="M291.16,274.12a1.32,1.32,0,0,0-1,.68,5,5,0,0,0-.71,2.82,6.08,6.08,0,0,0,.34,2.07,1.86,1.86,0,0,0,1.41,1.43h21.5a1.32,1.32,0,0,0,1-.68,5,5,0,0,0,.71-2.82,6.08,6.08,0,0,0-.34-2.07,1.86,1.86,0,0,0-1.41-1.43h-21.5Z" transform="translate(-9.07 -69.23)"/><path class="cls-2" d="M332.46,234L320.8,259.62,315,272.35a6,6,0,0,0-.34,2.07,5,5,0,0,0,.72,2.83,1.3,1.3,0,0,0,1,.67c0.79,0,1.15-.86,1.41-1.43l4.58-10,12.89-28.27a6,6,0,0,0,.34-2.07,5,5,0,0,0-.72-2.83,1.3,1.3,0,0,0-1-.67c-0.79,0-1.15.86-1.41,1.43h0Z" transform="translate(-9.07 -69.23)"/><path class="cls-2" d="M321.58,256l-9.24,19.83a6.12,6.12,0,0,0-.34,2.07,5,5,0,0,0,.71,2.82,1.32,1.32,0,0,0,1,.68c0.79,0,1.14-.86,1.41-1.43l9.24-19.83a6.12,6.12,0,0,0,.34-2.07,5,5,0,0,0-.71-2.82,1.32,1.32,0,0,0-1-.68c-0.79,0-1.14.86-1.41,1.43h0Z" transform="translate(-9.07 -69.23)"/><path class="cls-2" d="M265.68,265.22a1,1,0,0,0-.55.18,3.25,3.25,0,0,0-1.11,2.21,7,7,0,0,0,0,2.21c0.08,0.32.16,0.64,0.25,1a2.51,2.51,0,0,0,.86,1.25l22.32,8.51a1.05,1.05,0,0,0,.43.16l1.45,0.55a0.94,0.94,0,0,0,1.11,0,3.25,3.25,0,0,0,1.11-2.21,7,7,0,0,0,0-2.21c-0.08-.32-0.16-0.64-0.25-1a2.51,2.51,0,0,0-.86-1.25l-24.19-9.22a1,1,0,0,0-.55-0.18h0Z" transform="translate(-9.07 -69.23)"/><path class="cls-2" d="M264.42,252.49a3.26,3.26,0,0,0-1.11,2.21c-0.25,1.45-.11,3.41,1.11,4.43L290.54,281a0.94,0.94,0,0,0,1.11,0,3.26,3.26,0,0,0,1.11-2.21c0.25-1.45.11-3.41-1.11-4.43l-26.11-21.89a1,1,0,0,0-.55-0.18,1,1,0,0,0-.55.18h0Z" transform="translate(-9.07 -69.23)"/><path class="cls-2" d="M263.71,253a2.53,2.53,0,0,0-.86,1.25,6.87,6.87,0,0,0-.25,3.17q0.52,5.43,1,10.84c0.09,1,.91,3,2.21,2.21a2.53,2.53,0,0,0,.86-1.25,6.87,6.87,0,0,0,.25-3.17q-0.52-5.43-1-10.84c-0.08-.81-0.68-2.39-1.65-2.39a1.11,1.11,0,0,0-.57.17h0Z" transform="translate(-9.07 -69.23)"/><path class="cls-2" d="M358.72,189.17A5,5,0,0,0,358,192q0,35.43,0,70.85a6.12,6.12,0,0,0,.34,2.07,1.87,1.87,0,0,0,1.41,1.43,1.31,1.31,0,0,0,1-.67,5,5,0,0,0,.71-2.83q0-35.43,0-70.85a6.12,6.12,0,0,0-.34-2.07,1.87,1.87,0,0,0-1.41-1.43,1.31,1.31,0,0,0-1,.67h0Z" transform="translate(-9.07 -69.23)"/><path class="cls-2" d="M411,175.26l-51.44,11a1.31,1.31,0,0,0-1,.68,5,5,0,0,0-.71,2.82,6.1,6.1,0,0,0,.34,2.07c0.17,0.45.71,1.58,1.41,1.43l51.44-11a1.31,1.31,0,0,0,1-.68,5,5,0,0,0,.71-2.82,6.1,6.1,0,0,0-.34-2.07c-0.16-.42-0.65-1.45-1.29-1.45H411Z" transform="translate(-9.07 -69.23)"/><path class="cls-2" d="M404.67,187.6H361.5a1.32,1.32,0,0,0-1,.68,5,5,0,0,0-.71,2.82s0,0.09,0,.13a6.08,6.08,0,0,0,.34,1.93,1.86,1.86,0,0,0,1.41,1.43h46.3a1.32,1.32,0,0,0,1-.68,5,5,0,0,0,.71-2.82s0-.09,0-0.13a6.08,6.08,0,0,0-.34-1.93,1.86,1.86,0,0,0-1.41-1.43h-3.13Z" transform="translate(-9.07 -69.23)"/><path class="cls-2" d="M408.42,179.72l-0.36,1.89v0.06l-0.61,3.25-0.83,4.42a7,7,0,0,0,0,2.21,3.24,3.24,0,0,0,1.11,2.21c1.36,0.81,2-1.3,2.21-2.21q0.91-4.81,1.82-9.62a7,7,0,0,0,0-2.21,3.24,3.24,0,0,0-1.11-2.21,1.14,1.14,0,0,0-.59-0.18c-1,0-1.48,1.62-1.63,2.4h0Z" transform="translate(-9.07 -69.23)"/><path class="cls-2" d="M408.75,178q-0.22,1.15-.44,2.31a6.77,6.77,0,0,0,0,2.21,3.26,3.26,0,0,0,1.11,2.21c1.36,0.8,2-1.3,2.21-2.21s0.29-1.54.44-2.31a6.77,6.77,0,0,0,0-2.21,3.26,3.26,0,0,0-1.11-2.21,1.15,1.15,0,0,0-.59-0.18c-1,0-1.48,1.62-1.63,2.39h0Z" transform="translate(-9.07 -69.23)"/><path class="cls-2" d="M359.39,260.9a5,5,0,0,0-.72,2.82,6.22,6.22,0,0,0,.34,2.07l0.38,0.76a1.3,1.3,0,0,0,1,.67l64,20.23a1.31,1.31,0,0,0,1-.68,5,5,0,0,0,.72-2.82,6.22,6.22,0,0,0-.34-2.07l-0.38-.76a1.3,1.3,0,0,0-1-.67l-64-20.23a1.31,1.31,0,0,0-1,.68h0Z" transform="translate(-9.07 -69.23)"/><path class="cls-2" d="M361,188a2.53,2.53,0,0,0-.86,1.25,6.3,6.3,0,0,0-.25,3.17q6,37.28,11.91,74.55c0.15,0.93.88,3,2.21,2.21a2.53,2.53,0,0,0,.86-1.25,6.3,6.3,0,0,0,.25-3.17l-11.91-74.55c-0.13-.79-0.66-2.39-1.63-2.39a1.13,1.13,0,0,0-.58.18h0Z" transform="translate(-9.07 -69.23)"/><path class="cls-2" d="M368.11,219.87a1.31,1.31,0,0,0-1,.68,4.94,4.94,0,0,0-.72,2.82,6,6,0,0,0,.34,2.07,1.86,1.86,0,0,0,1.41,1.43h42.3a1.31,1.31,0,0,0,1-.68,4.94,4.94,0,0,0,.72-2.82,6,6,0,0,0-.34-2.07,1.86,1.86,0,0,0-1.41-1.43h-42.3Z" transform="translate(-9.07 -69.23)"/><path class="cls-2" d="M195.85,190.58q-13.83,35.8-27.65,71.6a6.08,6.08,0,0,0-.34,2.07,5,5,0,0,0,.71,2.82,1.31,1.31,0,0,0,1,.68,1.86,1.86,0,0,0,1.41-1.43q13.83-35.79,27.65-71.6a6.08,6.08,0,0,0,.34-2.07,5,5,0,0,0-.71-2.82,1.31,1.31,0,0,0-1-.68,1.86,1.86,0,0,0-1.41,1.43h0Z" transform="translate(-9.07 -69.23)"/><path class="cls-2" d="M168.4,261.63L164,273.09l0,0.07-0.12.3a6.08,6.08,0,0,0-.34,2.07,5,5,0,0,0,.71,2.82,1.32,1.32,0,0,0,1,.68,1.86,1.86,0,0,0,1.41-1.43l4.57-11.84a6.08,6.08,0,0,0,.34-2.07,5,5,0,0,0-.71-2.82,1.32,1.32,0,0,0-1-.68,1.86,1.86,0,0,0-1.41,1.43h0Z" transform="translate(-9.07 -69.23)"/><path class="cls-2" d="M194,188.22l-0.84,2.1-2.1,5.25h0l-3.92,9.78a6.1,6.1,0,0,0-.34,2.07,5,5,0,0,0,.71,2.82,1.31,1.31,0,0,0,1,.68,1.86,1.86,0,0,0,1.41-1.43l5-12.44,1.88-4.69a6.1,6.1,0,0,0,.34-2.07,5,5,0,0,0-.71-2.82,1.31,1.31,0,0,0-1-.68,1.86,1.86,0,0,0-1.41,1.43h0Z" transform="translate(-9.07 -69.23)"/><path class="cls-2" d="M164.92,263.5a5.21,5.21,0,0,0-.71,2.82q-0.25,4.08-.5,8.16a6.2,6.2,0,0,0,.34,2.07,1.86,1.86,0,0,0,1.41,1.43,1.31,1.31,0,0,0,1-.68,5.25,5.25,0,0,0,.72-2.82q0.25-4.08.5-8.16a6.2,6.2,0,0,0-.34-2.07,1.86,1.86,0,0,0-1.41-1.43,1.31,1.31,0,0,0-1,.68h0Z" transform="translate(-9.07 -69.23)"/><path class="cls-2" d="M165,262.57a5.24,5.24,0,0,0-.71,2.82q-0.26,4.35-.53,8.7a6.1,6.1,0,0,0,.34,2.07,1.86,1.86,0,0,0,1.41,1.43,1.32,1.32,0,0,0,1-.68,5.24,5.24,0,0,0,.71-2.82q0.26-4.35.53-8.7a6.1,6.1,0,0,0-.34-2.07,1.86,1.86,0,0,0-1.41-1.43,1.32,1.32,0,0,0-1,.68h0Z" transform="translate(-9.07 -69.23)"/><path class="cls-2" d="M163.35,262.79a5,5,0,0,0-.71,2.82v11.21a6.08,6.08,0,0,0,.34,2.07,1.87,1.87,0,0,0,1.41,1.43,1.31,1.31,0,0,0,1-.68,5,5,0,0,0,.71-2.82V265.62a6.08,6.08,0,0,0-.34-2.07,1.87,1.87,0,0,0-1.41-1.43,1.31,1.31,0,0,0-1,.68h0Z" transform="translate(-9.07 -69.23)"/><path class="cls-2" d="M134.46,169.26a5,5,0,0,0-.71,2.82v92.06a6.1,6.1,0,0,0,.34,2.07,1.87,1.87,0,0,0,1.41,1.43,1.32,1.32,0,0,0,1-.68,5,5,0,0,0,.71-2.82V172.08a6.1,6.1,0,0,0-.34-2.07,1.87,1.87,0,0,0-1.41-1.43,1.32,1.32,0,0,0-1,.68h0Z" transform="translate(-9.07 -69.23)"/><path class="cls-2" d="M131,168.23a5,5,0,0,0-.71,2.82v93a6.11,6.11,0,0,0,.34,2.07A1.87,1.87,0,0,0,132,267.5a1.32,1.32,0,0,0,1-.68,5,5,0,0,0,.71-2.82v-93a6.11,6.11,0,0,0-.34-2.07,1.87,1.87,0,0,0-1.41-1.43,1.32,1.32,0,0,0-1,.68h0Z" transform="translate(-9.07 -69.23)"/><path class="cls-2" d="M132.68,262.05l-1.54,2-0.06.07-6.56,8.46-10.87,14a4.36,4.36,0,0,0-.62,1.72,6.17,6.17,0,0,0,.25,3.17,2.53,2.53,0,0,0,.86,1.25,1.14,1.14,0,0,0,1.59-.5L121,285.4l13.72-17.7a4.36,4.36,0,0,0,.63-1.72,6.17,6.17,0,0,0-.25-3.17,2.53,2.53,0,0,0-.86-1.25,1.07,1.07,0,0,0-.55-0.17,1.4,1.4,0,0,0-1,.66h0Z" transform="translate(-9.07 -69.23)"/><path class="cls-2" d="M133.5,261.51a1.39,1.39,0,0,0-1,.66l-8.25,10.69h0L114.87,285a4.43,4.43,0,0,0-.63,1.72,6.21,6.21,0,0,0,.25,3.17,2.53,2.53,0,0,0,.86,1.25,1.14,1.14,0,0,0,1.59-.5l9.31-12.08,0,0,5.22-6.77,3-3.92a4.43,4.43,0,0,0,.63-1.72,6.81,6.81,0,0,0,.1-1.2,5.68,5.68,0,0,0-.35-2,2.53,2.53,0,0,0-.86-1.25,1.07,1.07,0,0,0-.55-0.17h0Z" transform="translate(-9.07 -69.23)"/><path class="cls-2" d="M90.28,287a1.32,1.32,0,0,0-1,.68,5,5,0,0,0-.71,2.82,6.08,6.08,0,0,0,.34,2.07A1.86,1.86,0,0,0,90.28,294h22.65a1.32,1.32,0,0,0,1-.68,5,5,0,0,0,.71-2.82,6.08,6.08,0,0,0-.34-2.07,1.86,1.86,0,0,0-1.41-1.43H90.28Z" transform="translate(-9.07 -69.23)"/><path class="cls-2" d="M60.15,265.32A3.25,3.25,0,0,0,59,267.54c-0.24,1.38-.14,3.5,1.11,4.43l29.2,21.86a1,1,0,0,0,1.11,0,3.25,3.25,0,0,0,1.11-2.22c0.24-1.38.14-3.5-1.11-4.43l-29.2-21.86a1,1,0,0,0-1.11,0h0Z" transform="translate(-9.07 -69.23)"/><path class="cls-2" d="M60,245.21a1.32,1.32,0,0,0-1,.68,5,5,0,0,0-.71,2.82V249s0,0.09,0,.13v19.28a6.11,6.11,0,0,0,.34,2.07A1.87,1.87,0,0,0,60,271.92a1.32,1.32,0,0,0,1-.68,5,5,0,0,0,.71-2.82V248.71s0-.09,0-0.13a6.12,6.12,0,0,0-.34-1.93A1.87,1.87,0,0,0,60,245.21h0Z" transform="translate(-9.07 -69.23)"/><path class="cls-2" d="M58.16,246.06a6.11,6.11,0,0,0-.34,2.07,5,5,0,0,0,.71,2.83L88,291.46a1.32,1.32,0,0,0,1,.68,1.87,1.87,0,0,0,1.41-1.43,6.11,6.11,0,0,0,.34-2.07,5,5,0,0,0-.71-2.83l-29.5-40.5a1.32,1.32,0,0,0-1-.68,1.87,1.87,0,0,0-1.41,1.43h0Z" transform="translate(-9.07 -69.23)"/><path class="cls-2" d="M125,138.16H60.57a1.31,1.31,0,0,0-1,.68,4.94,4.94,0,0,0-.72,2.82,6.08,6.08,0,0,0,.34,2.07,1.86,1.86,0,0,0,1.41,1.43H217.35a1.31,1.31,0,0,0,1-.68,4.94,4.94,0,0,0,.72-2.82,6.08,6.08,0,0,0-.34-2.07,1.86,1.86,0,0,0-1.41-1.43H125Z" transform="translate(-9.07 -69.23)"/><path class="cls-2" d="M212.1,140.69L102.91,157l-44.44,6.63c-1.47.22-1.75,2.34-1.75,3.5a6.08,6.08,0,0,0,.34,2.07c0.19,0.49.69,1.54,1.41,1.43L144,157.85l68.11-10.16c1.47-.22,1.75-2.34,1.75-3.5a6.08,6.08,0,0,0-.34-2.07c-0.18-.46-0.64-1.44-1.31-1.44h-0.1Z" transform="translate(-9.07 -69.23)"/><path class="cls-2" d="M57,139.7a5,5,0,0,0-.71,2.82v24.41s0,0.09,0,.13a6.08,6.08,0,0,0,.34,1.93A1.87,1.87,0,0,0,58,170.43a1.32,1.32,0,0,0,1-.68,5,5,0,0,0,.71-2.82V144.87s0-.09,0-0.13v-2.22a6.08,6.08,0,0,0-.34-2.07A1.87,1.87,0,0,0,58,139a1.32,1.32,0,0,0-1,.68h0Z" transform="translate(-9.07 -69.23)"/><path class="cls-2" d="M130.94,155.58a5,5,0,0,0-.71,2.82v23.53a6.08,6.08,0,0,0,.34,2.07,1.87,1.87,0,0,0,1.41,1.43,1.31,1.31,0,0,0,1-.68,5,5,0,0,0,.71-2.82V158.4a6.08,6.08,0,0,0-.34-2.07A1.87,1.87,0,0,0,132,154.9a1.31,1.31,0,0,0-1,.68h0Z" transform="translate(-9.07 -69.23)"/><path class="cls-2" d="M133.31,157.64a5,5,0,0,0-.71,2.82v20.59a6.11,6.11,0,0,0,.34,2.07,1.87,1.87,0,0,0,1.41,1.43,1.32,1.32,0,0,0,1-.68,5,5,0,0,0,.71-2.82V160.46a6.11,6.11,0,0,0-.34-2.07,1.87,1.87,0,0,0-1.41-1.43,1.32,1.32,0,0,0-1,.68h0Z" transform="translate(-9.07 -69.23)"/><path class="cls-2" d="M133.31,159.4a5,5,0,0,0-.71,2.82v17.65a6.08,6.08,0,0,0,.34,2.07,1.87,1.87,0,0,0,1.41,1.43,1.31,1.31,0,0,0,1-.68,5,5,0,0,0,.71-2.82V162.23a6.08,6.08,0,0,0-.34-2.07,1.87,1.87,0,0,0-1.41-1.43,1.31,1.31,0,0,0-1,.68h0Z" transform="translate(-9.07 -69.23)"/><path class="cls-2" d="M134.22,157.05a5,5,0,0,0-.71,2.82v22.65a6.08,6.08,0,0,0,.34,2.07,1.87,1.87,0,0,0,1.41,1.43,1.31,1.31,0,0,0,1-.68,5,5,0,0,0,.71-2.82V159.88a6.08,6.08,0,0,0-.34-2.07,1.87,1.87,0,0,0-1.41-1.43,1.31,1.31,0,0,0-1,.68h0Z" transform="translate(-9.07 -69.23)"/><path class="cls-2" d="M130.32,264.12l-2,2.53,0,0-7.89,9.76-8.25,10.2a4.35,4.35,0,0,0-.63,1.71,6.22,6.22,0,0,0,.25,3.18,2.53,2.53,0,0,0,.86,1.25,1.15,1.15,0,0,0,1.59-.5l8.25-10.2,10-12.33A4.35,4.35,0,0,0,133,268a6.21,6.21,0,0,0-.25-3.17,2.53,2.53,0,0,0-.86-1.25,1.07,1.07,0,0,0-.55-0.17,1.43,1.43,0,0,0-1,.66h0Z" transform="translate(-9.07 -69.23)"/><path class="cls-2" d="M131.5,264.19L113.86,286.6a4.36,4.36,0,0,0-.62,1.72,6.18,6.18,0,0,0,.25,3.18,2.53,2.53,0,0,0,.86,1.25,1.15,1.15,0,0,0,1.59-.5l17.64-22.41a4.36,4.36,0,0,0,.63-1.72,6.18,6.18,0,0,0-.25-3.18,2.53,2.53,0,0,0-.86-1.25,1.06,1.06,0,0,0-.54-0.16,1.41,1.41,0,0,0-1,.66h0Z" transform="translate(-9.07 -69.23)"/><path class="cls-2" d="M131.52,264.17l-4.17,5.3a4.37,4.37,0,0,0-.63,1.72,6.17,6.17,0,0,0,.25,3.17,2.51,2.51,0,0,0,.86,1.25,1.14,1.14,0,0,0,1.59-.5l4.17-5.3a4.37,4.37,0,0,0,.63-1.72,6.17,6.17,0,0,0-.25-3.17,2.51,2.51,0,0,0-.86-1.25,1.06,1.06,0,0,0-.55-0.17,1.42,1.42,0,0,0-1,.66h0Z" transform="translate(-9.07 -69.23)"/><path class="cls-2" d="M134.65,260.2L130,266.08a4.35,4.35,0,0,0-.63,1.72,6.21,6.21,0,0,0,.25,3.17,2.53,2.53,0,0,0,.86,1.25,1.14,1.14,0,0,0,1.59-.5l4.63-5.88a4.35,4.35,0,0,0,.63-1.72,6.21,6.21,0,0,0-.25-3.17,2.53,2.53,0,0,0-.86-1.25,1.06,1.06,0,0,0-.54-0.17,1.42,1.42,0,0,0-1,.66h0Z" transform="translate(-9.07 -69.23)"/><path class="cls-2" d="M217.35,139.76l-11.57,2c-1.46.25-1.75,2.31-1.75,3.5a6.21,6.21,0,0,0,.34,2.07c0.18,0.47.7,1.55,1.41,1.43l11.57-2c1.46-.25,1.75-2.31,1.75-3.5a6.2,6.2,0,0,0-.34-2.07c-0.17-.45-0.64-1.44-1.3-1.44h-0.11Z" transform="translate(-9.07 -69.23)"/><path class="cls-2" d="M58.31,138.18a1.31,1.31,0,0,0-1,.68,4.94,4.94,0,0,0-.72,2.82,6,6,0,0,0,.34,2.07,1.86,1.86,0,0,0,1.41,1.43h12a1.31,1.31,0,0,0,1-.68,4.94,4.94,0,0,0,.72-2.82,6,6,0,0,0-.34-2.07,1.86,1.86,0,0,0-1.41-1.43h-12Z" transform="translate(-9.07 -69.23)"/><path class="cls-2" d="M133.77,153.2a1.31,1.31,0,0,0-1,.68,5,5,0,0,0-.71,2.82V158s0,0.09,0,.14v14.35a6.08,6.08,0,0,0,.34,2.07,1.87,1.87,0,0,0,1.41,1.43,1.31,1.31,0,0,0,1-.68,5,5,0,0,0,.71-2.82V156.7s0-.09,0-0.13a6.08,6.08,0,0,0-.34-1.93,1.87,1.87,0,0,0-1.41-1.43h0Z" transform="translate(-9.07 -69.23)"/><path class="cls-2" d="M133.52,154.46a5,5,0,0,0-.71,2.83v14.64a6.12,6.12,0,0,0,.34,2.07,1.87,1.87,0,0,0,1.41,1.43,1.31,1.31,0,0,0,1-.67,5,5,0,0,0,.71-2.83V157.29a6.12,6.12,0,0,0-.34-2.07,1.87,1.87,0,0,0-1.41-1.43,1.31,1.31,0,0,0-1,.67h0Z" transform="translate(-9.07 -69.23)"/><path class="cls-2" d="M133.52,162.71a5,5,0,0,0-.71,2.83v7.65a6.12,6.12,0,0,0,.34,2.07,1.87,1.87,0,0,0,1.41,1.43,1.31,1.31,0,0,0,1-.67,5,5,0,0,0,.71-2.83v-7.65a6.12,6.12,0,0,0-.34-2.07,1.87,1.87,0,0,0-1.41-1.43,1.31,1.31,0,0,0-1,.67h0Z" transform="translate(-9.07 -69.23)"/><path class="cls-2" d="M134.42,155a5,5,0,0,0-.71,2.82v14a6.1,6.1,0,0,0,.34,2.07,1.87,1.87,0,0,0,1.41,1.43,1.32,1.32,0,0,0,1-.68,5,5,0,0,0,.71-2.82v-14a6.1,6.1,0,0,0-.34-2.07,1.87,1.87,0,0,0-1.41-1.43,1.32,1.32,0,0,0-1,.68h0Z" transform="translate(-9.07 -69.23)"/><path class="cls-2" d="M490.3,141.44a5,5,0,0,0-.71,2.82V292.08a6.1,6.1,0,0,0,.34,2.07,1.87,1.87,0,0,0,1.41,1.43,1.32,1.32,0,0,0,1-.68,5,5,0,0,0,.71-2.82V144.26a6.1,6.1,0,0,0-.34-2.07,1.87,1.87,0,0,0-1.41-1.43,1.32,1.32,0,0,0-1,.68h0Z" transform="translate(-9.07 -69.23)"/><path class="cls-2" d="M527.47,141.45H492a1.32,1.32,0,0,0-1,.68,5,5,0,0,0-.71,2.82s0,0.09,0,.13a6.08,6.08,0,0,0,.34,1.93,1.86,1.86,0,0,0,1.41,1.43h43.22a1.32,1.32,0,0,0,1-.68,5,5,0,0,0,.71-2.82,6.08,6.08,0,0,0-.34-2.07,1.86,1.86,0,0,0-1.41-1.43h-7.78Z" transform="translate(-9.07 -69.23)"/><path class="cls-2" d="M536.59,142a3.26,3.26,0,0,0-1.11,2.21,7.08,7.08,0,0,0-.1,1.17,4.23,4.23,0,0,0,1.21,3.26l5,4.29,7.94,6.87,3.08,2.66,3.88,3.35a0.94,0.94,0,0,0,1.11,0,3.28,3.28,0,0,0,1.11-2.21c0.25-1.47.09-3.39-1.11-4.43L537.7,142a0.94,0.94,0,0,0-1.11,0h0Z" transform="translate(-9.07 -69.23)"/><path class="cls-2" d="M557.82,161.1a5,5,0,0,0-.71,2.82v21.46a6.1,6.1,0,0,0,.34,2.07,1.87,1.87,0,0,0,1.41,1.43,1.32,1.32,0,0,0,1-.68,5,5,0,0,0,.71-2.82V163.92a6.1,6.1,0,0,0-.34-2.07,1.87,1.87,0,0,0-1.41-1.43,1.32,1.32,0,0,0-1,.68h0Z" transform="translate(-9.07 -69.23)"/><path class="cls-2" d="M558.28,185.4l-15.51,7.91a2.5,2.5,0,0,0-.86,1.26,6.17,6.17,0,0,0-.25,3.17c0.18,1,.83,2.92,2.21,2.21L559.38,192a2.5,2.5,0,0,0,.86-1.26,6.17,6.17,0,0,0,.25-3.17c-0.15-.86-0.65-2.37-1.64-2.37a1.26,1.26,0,0,0-.57.15h0Z" transform="translate(-9.07 -69.23)"/><path class="cls-2" d="M543.83,192.82l-32.1,16a2.53,2.53,0,0,0-.86,1.25,6.21,6.21,0,0,0-.25,3.17c0.18,1,.83,2.91,2.21,2.21l32.1-16a2.53,2.53,0,0,0,.86-1.25A6.21,6.21,0,0,0,546,195c-0.15-.87-0.65-2.36-1.64-2.36a1.27,1.27,0,0,0-.57.15h0Z" transform="translate(-9.07 -69.23)"/><path class="cls-2" d="M557,196.09l-40.13,12.74a1.37,1.37,0,0,0-.53.17L512,210.38a1.31,1.31,0,0,0-1,.68,4.94,4.94,0,0,0-.72,2.82,6,6,0,0,0,.34,2.07l0.38,0.76a1.3,1.3,0,0,0,1,.68l4.89-1.55h0L557,203.09a1.31,1.31,0,0,0,1-.68,4.94,4.94,0,0,0,.72-2.82,6,6,0,0,0-.34-2.07l-0.38-.76a1.3,1.3,0,0,0-1-.68h0Z" transform="translate(-9.07 -69.23)"/><path class="cls-2" d="M556.92,196.12a1.31,1.31,0,0,0-1,.68,5,5,0,0,0-.72,2.82,6.22,6.22,0,0,0,.34,2.07l0.38,0.76a1.3,1.3,0,0,0,1,.67l2-.63a1.31,1.31,0,0,0,1-.68,5,5,0,0,0,.72-2.82,6.22,6.22,0,0,0-.34-2.07l-0.38-.76a1.3,1.3,0,0,0-1-.67l-2,.63h0Z" transform="translate(-9.07 -69.23)"/><path class="cls-2" d="M557.73,184.09a5,5,0,0,0-.71,2.82V199a6.1,6.1,0,0,0,.34,2.07,1.87,1.87,0,0,0,1.41,1.43,1.32,1.32,0,0,0,1-.68,5,5,0,0,0,.71-2.82V186.92a6.1,6.1,0,0,0-.34-2.07,1.87,1.87,0,0,0-1.41-1.43,1.32,1.32,0,0,0-1,.68h0Z" transform="translate(-9.07 -69.23)"/><path class="cls-2" d="M509.57,209.86a6.08,6.08,0,0,0-.34,2.07,4.94,4.94,0,0,0,.72,2.82l53.31,72.71,1.86,2.54,0,0.05,0.14,0.18a1.31,1.31,0,0,0,1,.68,1.86,1.86,0,0,0,1.41-1.43,6.08,6.08,0,0,0,.34-2.07,4.94,4.94,0,0,0-.72-2.82l-0.13-.18a1.57,1.57,0,0,0-.19-0.26Q542.74,251,518.46,217.89L512,209.1a1.31,1.31,0,0,0-1-.68,1.86,1.86,0,0,0-1.41,1.43h0Z" transform="translate(-9.07 -69.23)"/><path class="cls-2" d="M492.3,143.5a4.77,4.77,0,0,0-.71,2.82l6.87,116.17q0.86,14.53,1.72,29a6.1,6.1,0,0,0,.34,2.07,1.87,1.87,0,0,0,1.41,1.43,1.32,1.32,0,0,0,1-.68,4.77,4.77,0,0,0,.71-2.82q-2.44-41.39-4.89-82.77l-3.69-62.45a6.1,6.1,0,0,0-.34-2.07,1.87,1.87,0,0,0-1.41-1.43,1.32,1.32,0,0,0-1,.68h0Z" transform="translate(-9.07 -69.23)"/><path class="cls-2" d="M500.92,289.54l-2,.77a1.05,1.05,0,0,0-.45.17l-0.69.26-7.52,2.87a2.53,2.53,0,0,0-.86,1.25,6.23,6.23,0,0,0-.25,3.18,4.37,4.37,0,0,0,.63,1.72l0.48,0.5a0.94,0.94,0,0,0,1.11,0l3.25-1.24,3.06-1.17,4.36-1.66a2.53,2.53,0,0,0,.86-1.25,6.23,6.23,0,0,0,.25-3.18,4.37,4.37,0,0,0-.63-1.72l-0.48-.5a1,1,0,0,0-.55-0.18,1,1,0,0,0-.55.18h0Z" transform="translate(-9.07 -69.23)"/><path class="cls-2" d="M626.58,192.5l-19.81,45.91L588.83,280a6.12,6.12,0,0,0-.34,2.07,5,5,0,0,0,.71,2.82,1.32,1.32,0,0,0,1,.68c0.77,0,1.16-.86,1.41-1.43l7.14-16.55,0.07-.15,5.51-12.77,25-58a6.12,6.12,0,0,0,.34-2.07,5,5,0,0,0-.71-2.82,1.32,1.32,0,0,0-1-.68c-0.77,0-1.16.86-1.41,1.43h0Z" transform="translate(-9.07 -69.23)"/><path class="cls-2" d="M625.91,190l-1.55,3.51-0.09.19-3.58,8.09q-16.44,37.1-32.86,74.21a6.2,6.2,0,0,0-.34,2.07,4.94,4.94,0,0,0,.72,2.82,1.3,1.3,0,0,0,1,.68c0.78,0,1.16-.86,1.41-1.43l36.06-81.43,0.14-.33,0.11-.24,1.77-4a6.2,6.2,0,0,0,.34-2.07,4.94,4.94,0,0,0-.72-2.82,1.3,1.3,0,0,0-1-.68c-0.78,0-1.16.86-1.41,1.43h0Z" transform="translate(-9.07 -69.23)"/><path class="cls-2" d="M626.59,188.6a5,5,0,0,0-.71,2.82,6.08,6.08,0,0,0,.34,2.07,1.87,1.87,0,0,0,1.41,1.43,1.32,1.32,0,0,0,1-.68,5,5,0,0,0,.71-2.82,6.08,6.08,0,0,0-.34-2.07,1.87,1.87,0,0,0-1.41-1.43,1.32,1.32,0,0,0-1,.68h0Z" transform="translate(-9.07 -69.23)"/><path class="cls-2" d="M627.73,189.73a4.35,4.35,0,0,0-.63,1.72,5.93,5.93,0,0,0,.25,3.17l41.39,96.16a2.53,2.53,0,0,0,.86,1.25,1.14,1.14,0,0,0,1.59-.5,4.35,4.35,0,0,0,.63-1.72,5.93,5.93,0,0,0-.25-3.17l-41.39-96.16a2.53,2.53,0,0,0-.86-1.25,1.06,1.06,0,0,0-.55-0.17,1.36,1.36,0,0,0-1,.66h0Z" transform="translate(-9.07 -69.23)"/><path class="cls-2" d="M629.59,193.43a4.37,4.37,0,0,0-.63,1.72,6.64,6.64,0,0,0,.25,3.18l31.95,100.9a2.53,2.53,0,0,0,.86,1.25,1.14,1.14,0,0,0,1.59-.5,4.37,4.37,0,0,0,.63-1.72,6.64,6.64,0,0,0-.25-3.18L632,194.19a2.53,2.53,0,0,0-.86-1.25,1.08,1.08,0,0,0-.55-0.16,1.35,1.35,0,0,0-1,.66h0Z" transform="translate(-9.07 -69.23)"/><path class="cls-2" d="M656.33,277.87a4.43,4.43,0,0,0-.63,1.72,6.72,6.72,0,0,0,.25,3.17l6.89,21.77a2.53,2.53,0,0,0,.86,1.25,1.14,1.14,0,0,0,1.59-.5,4.43,4.43,0,0,0,.63-1.72,6.72,6.72,0,0,0-.25-3.17l-6.89-21.77a2.53,2.53,0,0,0-.86-1.25,1.07,1.07,0,0,0-.55-0.16,1.36,1.36,0,0,0-1,.66h0Z" transform="translate(-9.07 -69.23)"/><path class="cls-2" d="M670,289.2l-4.54,9.42a6,6,0,0,0-.34,2.07,5,5,0,0,0,.72,2.83,1.31,1.31,0,0,0,1,.67c0.79,0,1.14-.86,1.41-1.43l4.54-9.42a6,6,0,0,0,.34-2.07,5,5,0,0,0-.72-2.83,1.31,1.31,0,0,0-1-.67c-0.79,0-1.14.86-1.41,1.43h0Z" transform="translate(-9.07 -69.23)"/><path class="cls-2" d="M667.29,294.86l-2.1,4.34-0.19.4-0.08.17-1.37,2.83a6.08,6.08,0,0,0-.34,2.07,5,5,0,0,0,.71,2.82,1.32,1.32,0,0,0,1,.68c0.79,0,1.13-.86,1.41-1.43l0.51-1.06,0.92-1.9h0l2.31-4.78a6.08,6.08,0,0,0,.34-2.07,5,5,0,0,0-.71-2.82,1.32,1.32,0,0,0-1-.68c-0.79,0-1.13.86-1.41,1.43h0Z" transform="translate(-9.07 -69.23)"/><path class="cls-2" d="M633.33,243l-30.7,6.18c-1.46.29-1.75,2.27-1.75,3.5a6.08,6.08,0,0,0,.34,2.07c0.18,0.45.71,1.57,1.41,1.43l5.75-1.16h0l24.9-5c1.46-.29,1.75-2.27,1.75-3.5a6.08,6.08,0,0,0-.34-2.07c-0.17-.43-0.65-1.45-1.29-1.45h-0.12Z" transform="translate(-9.07 -69.23)"/><path class="cls-2" d="M512.78,214.33a6.12,6.12,0,0,0-.34,2.07,5,5,0,0,0,.71,2.82Q539.07,255.76,565,292.3a1.31,1.31,0,0,0,1,.67,1.87,1.87,0,0,0,1.41-1.43,6.12,6.12,0,0,0,.34-2.07,5,5,0,0,0-.71-2.82l-51.83-73.08a1.31,1.31,0,0,0-1-.67,1.87,1.87,0,0,0-1.41,1.43h0Z" transform="translate(-9.07 -69.23)"/><path class="cls-2" d="M513.37,216a5.73,5.73,0,0,0,.38,4.89l48.62,71a1.31,1.31,0,0,0,1,.68,1.87,1.87,0,0,0,1.41-1.43,5.73,5.73,0,0,0-.38-4.89l-48.62-71a1.32,1.32,0,0,0-1-.68,1.87,1.87,0,0,0-1.41,1.43h0Z" transform="translate(-9.07 -69.23)"/><path class="cls-2" d="M556.61,279.15A5.73,5.73,0,0,0,557,284l9.71,14.16a1.3,1.3,0,0,0,1,.68,1.86,1.86,0,0,0,1.41-1.43,5.73,5.73,0,0,0-.38-4.89l-9.71-14.16a1.3,1.3,0,0,0-1-.68,1.86,1.86,0,0,0-1.41,1.43h0Z" transform="translate(-9.07 -69.23)"/><path class="cls-2" d="M568.81,285.23a1.32,1.32,0,0,0-1,.68,5,5,0,0,0-.71,2.82v0.17s0,0.09,0,.14v7.37a6.1,6.1,0,0,0,.34,2.07,1.87,1.87,0,0,0,1.41,1.43,1.32,1.32,0,0,0,1-.68,5,5,0,0,0,.71-2.82v-7.68s0-.09,0-0.13a6.1,6.1,0,0,0-.34-1.93,1.87,1.87,0,0,0-1.41-1.43h0Z" transform="translate(-9.07 -69.23)"/><path class="cls-2" d="M557.1,275.08a6.12,6.12,0,0,0-.34,2.07,4.94,4.94,0,0,0,.71,2.82l2.51,3.39,5.28,7.12a1.52,1.52,0,0,0,.18.25l1.33,1.79a1.3,1.3,0,0,0,1,.67,1.87,1.87,0,0,0,1.41-1.43,6.12,6.12,0,0,0,.34-2.07,4.94,4.94,0,0,0-.71-2.82l-1.5-2,0,0-7.78-10.49a1.3,1.3,0,0,0-1-.67,1.87,1.87,0,0,0-1.41,1.43h0Z" transform="translate(-9.07 -69.23)"/><path class="cls-2" d="M558,276.34a6.12,6.12,0,0,0-.34,2.07,4.94,4.94,0,0,0,.71,2.82l6.58,8.88a1.31,1.31,0,0,0,1,.67,1.86,1.86,0,0,0,1.41-1.43,6.12,6.12,0,0,0,.34-2.07,4.94,4.94,0,0,0-.71-2.82l-6.58-8.88a1.31,1.31,0,0,0-1-.67,1.86,1.86,0,0,0-1.41,1.43h0Z" transform="translate(-9.07 -69.23)"/><path class="cls-2" d="M541.75,254.26a6.22,6.22,0,0,0-.34,2.07,4.82,4.82,0,0,0,.72,2.82l25,31.65a1.3,1.3,0,0,0,1,.67A1.86,1.86,0,0,0,569.6,290a6.22,6.22,0,0,0,.34-2.07,4.82,4.82,0,0,0-.72-2.82l-25-31.65a1.3,1.3,0,0,0-1-.67,1.86,1.86,0,0,0-1.41,1.43h0Z" transform="translate(-9.07 -69.23)"/><path class="cls-2" d="M509.34,210.42a6.08,6.08,0,0,0-.34,2.07,5,5,0,0,0,.71,2.82l8.9,12.45a1.31,1.31,0,0,0,1,.68,1.86,1.86,0,0,0,1.41-1.43,6.08,6.08,0,0,0,.34-2.07,5,5,0,0,0-.71-2.82l-8.9-12.45a1.31,1.31,0,0,0-1-.68,1.86,1.86,0,0,0-1.41,1.43h0Z" transform="translate(-9.07 -69.23)"/><path class="cls-2" d="M688.77,191.21a5,5,0,0,0-.71,2.82v95.66a6.08,6.08,0,0,0,.34,2.07,1.87,1.87,0,0,0,1.41,1.43,1.31,1.31,0,0,0,1-.68,5,5,0,0,0,.71-2.82V194a6.08,6.08,0,0,0-.34-2.07,1.87,1.87,0,0,0-1.41-1.43,1.31,1.31,0,0,0-1,.68h0Z" transform="translate(-9.07 -69.23)"/><path class="cls-2" d="M718.45,190.13H690.61a1.31,1.31,0,0,0-1,.68,4.94,4.94,0,0,0-.72,2.82,6.18,6.18,0,0,0,.34,2.07,1.86,1.86,0,0,0,1.41,1.43h27.84a1.31,1.31,0,0,0,1-.68,4.94,4.94,0,0,0,.72-2.82,6.18,6.18,0,0,0-.34-2.07,1.86,1.86,0,0,0-1.41-1.43h0Z" transform="translate(-9.07 -69.23)"/><path class="cls-2" d="M718.55,192.46a6.12,6.12,0,0,0-.34,2.07,4.82,4.82,0,0,0,.71,2.82l16,19.75a1.31,1.31,0,0,0,1,.67,1.87,1.87,0,0,0,1.41-1.43,6.12,6.12,0,0,0,.34-2.07,4.81,4.81,0,0,0-.71-2.82l-16-19.75a1.31,1.31,0,0,0-1-.67,1.87,1.87,0,0,0-1.41,1.43h0Z" transform="translate(-9.07 -69.23)"/><path class="cls-2" d="M736.49,216.86a4.71,4.71,0,0,0-.72,2.82q1.74,23.48,3.48,47a6.08,6.08,0,0,0,.34,2.07,1.86,1.86,0,0,0,1.41,1.43,1.3,1.3,0,0,0,1-.68,4.71,4.71,0,0,0,.72-2.82q-1.73-23.48-3.48-47a6.08,6.08,0,0,0-.34-2.07,1.86,1.86,0,0,0-1.41-1.43,1.3,1.3,0,0,0-1,.68h0Z" transform="translate(-9.07 -69.23)"/><path class="cls-2" d="M736.81,270.1l-43,20.8-0.09,0-0.39.19-0.25.12a2.53,2.53,0,0,0-.86,1.25,6.18,6.18,0,0,0-.25,3.18c0.18,1,.82,2.89,2.21,2.21l0.44-.21,0.2-.09h0l43.1-20.83a2.56,2.56,0,0,0,.86-1.25,6.18,6.18,0,0,0,.25-3.18c-0.15-.88-0.64-2.36-1.65-2.36a1.3,1.3,0,0,0-.57.14h0Z" transform="translate(-9.07 -69.23)"/><path class="cls-2" d="M740.61,268.27l-52,25.16a2.53,2.53,0,0,0-.86,1.25,6.18,6.18,0,0,0-.25,3.18c0.18,1,.82,2.89,2.21,2.21l52-25.16a2.53,2.53,0,0,0,.86-1.25,6.17,6.17,0,0,0,.25-3.17c-0.15-.89-0.64-2.36-1.64-2.36a1.3,1.3,0,0,0-.57.14h0Z" transform="translate(-9.07 -69.23)"/><path class="cls-2" d="M696.9,193.44Q692.57,243.7,688.28,294a7,7,0,0,0,0,2.21,3.25,3.25,0,0,0,1.11,2.21c1.3,0.77,2.13-1.26,2.21-2.21q4-47,8.06-94l0-.22a6.8,6.8,0,0,0,.09-1l0.45-5.26a7,7,0,0,0,0-2.21,3.25,3.25,0,0,0-1.11-2.21,1.11,1.11,0,0,0-.57-0.17c-1,0-1.58,1.58-1.65,2.39h0Z" transform="translate(-9.07 -69.23)"/><path class="cls-2" d="M736.77,213.06a4.67,4.67,0,0,0-.72,2.82l2.57,32.4,1.8,22.75s0,0.09,0,.13a6.12,6.12,0,0,0,.34,1.94,1.87,1.87,0,0,0,1.41,1.43,1.3,1.3,0,0,0,1-.68,4.63,4.63,0,0,0,.73-2.57c0-.09,0-0.17,0-0.26l-1.8-22.75-2.46-31a6.07,6.07,0,0,0-.09-1.1l0-.27a6.12,6.12,0,0,0-.34-2.07,1.87,1.87,0,0,0-1.41-1.43,1.3,1.3,0,0,0-1,.68h0Z" transform="translate(-9.07 -69.23)"/><path class="cls-2" d="M718.89,191.54a6.11,6.11,0,0,0-.34,2.07,4.86,4.86,0,0,0,.71,2.83l0.14,0.18h0a1.52,1.52,0,0,0,.25.32l12.39,15.74,2.61,3.32a1.47,1.47,0,0,0,.26.33l1.85,2.35a1.31,1.31,0,0,0,1,.68,1.86,1.86,0,0,0,1.41-1.43,6.11,6.11,0,0,0,.34-2.07,4.86,4.86,0,0,0-.71-2.83l-2.55-3.24-4.65-5.9a1.52,1.52,0,0,0-.25-0.32l-10-12.66-0.1-.13a1.31,1.31,0,0,0-1-.68,1.86,1.86,0,0,0-1.41,1.43h0Z" transform="translate(-9.07 -69.23)"/><path class="cls-2" d="M813.84,180.57h-0.12l-0.19,0-0.09,0h0L768,189.54c-1.46.29-1.75,2.28-1.75,3.5a6.08,6.08,0,0,0,.34,2.07c0.18,0.46.7,1.57,1.41,1.43l45.48-8.9,0.09,0,0.19,0c1.46-.29,1.75-2.28,1.75-3.5q0-.07,0-0.13a6.08,6.08,0,0,0-.34-1.93c-0.17-.43-0.64-1.45-1.29-1.45h0Z" transform="translate(-9.07 -69.23)"/><path class="cls-2" d="M789.93,185.24l-10,2h0L776,188l-0.56.11-1.17.23-4.22.82h0l-1.61.32c-1.46.29-1.75,2.28-1.75,3.5a6.08,6.08,0,0,0,.34,2.07c0.18,0.46.7,1.57,1.41,1.43l2-.4h0l1.78-.35h0l1-.19,12.34-2.41h0.06l4.32-.85c1.46-.29,1.75-2.28,1.75-3.5q0-.07,0-0.13a6.08,6.08,0,0,0-.34-1.93c-0.17-.43-0.64-1.45-1.29-1.45h-0.12Z" transform="translate(-9.07 -69.23)"/><path class="cls-2" d="M785.61,186.08l-22.27,4.36c-1.46.29-1.75,2.28-1.75,3.5a6.1,6.1,0,0,0,.34,2.07c0.18,0.46.7,1.57,1.41,1.43l22.27-4.36c1.46-.29,1.75-2.28,1.75-3.5a6.1,6.1,0,0,0-.34-2.07c-0.17-.43-0.64-1.45-1.29-1.45h-0.12Z" transform="translate(-9.07 -69.23)"/><path class="cls-2" d="M819.74,179.41l-9.28,1.81c-1.46.29-1.75,2.28-1.75,3.5a6.12,6.12,0,0,0,.34,2.07c0.18,0.45.7,1.57,1.41,1.43l0.78-.15h0l8.48-1.66c1.46-.29,1.75-2.28,1.75-3.5a6.12,6.12,0,0,0-.34-2.07c-0.17-.43-0.64-1.44-1.29-1.44h-0.12Z" transform="translate(-9.07 -69.23)"/><path class="cls-2" d="M820.33,192.25H766.14a1.31,1.31,0,0,0-1,.68,5,5,0,0,0-.71,2.82,6.1,6.1,0,0,0,.34,2.07,1.87,1.87,0,0,0,1.41,1.43h54.19a1.32,1.32,0,0,0,1-.68,5,5,0,0,0,.71-2.82s0-.09,0-0.13a6.08,6.08,0,0,0-.34-1.93,1.87,1.87,0,0,0-1.41-1.43h0Z" transform="translate(-9.07 -69.23)"/><path class="cls-2" d="M766.14,192.24a1.32,1.32,0,0,0-1,.68,5,5,0,0,0-.71,2.82,6.08,6.08,0,0,0,.34,2.07,1.86,1.86,0,0,0,1.41,1.43h12.38a1.32,1.32,0,0,0,1-.68,5,5,0,0,0,.71-2.82,6.1,6.1,0,0,0-.34-2.07,1.86,1.86,0,0,0-1.41-1.43H766.14Z" transform="translate(-9.07 -69.23)"/><path class="cls-2" d="M765.81,192.24a1.3,1.3,0,0,0-1,.68,4.94,4.94,0,0,0-.72,2.82,6.2,6.2,0,0,0,.34,2.07,1.86,1.86,0,0,0,1.41,1.43h13.38a1.31,1.31,0,0,0,1-.68,4.94,4.94,0,0,0,.72-2.82,6.18,6.18,0,0,0-.34-2.07,1.86,1.86,0,0,0-1.41-1.43H765.81Z" transform="translate(-9.07 -69.23)"/><path class="cls-2" d="M767.48,192.24a1.32,1.32,0,0,0-1,.68,5,5,0,0,0-.71,2.82,6.08,6.08,0,0,0,.34,2.07,1.86,1.86,0,0,0,1.41,1.43h10.37a1.32,1.32,0,0,0,1-.68,5,5,0,0,0,.71-2.82,6.08,6.08,0,0,0-.34-2.07,1.86,1.86,0,0,0-1.41-1.43H767.48Z" transform="translate(-9.07 -69.23)"/><path class="cls-2" d="M821.44,179.77q-1,6.54-2,13.07a7,7,0,0,0,0,2.21,3.25,3.25,0,0,0,1.11,2.21c1.34,0.79,2.07-1.29,2.21-2.21q1-6.54,2-13.07a7,7,0,0,0,0-2.21,3.25,3.25,0,0,0-1.11-2.21,1.13,1.13,0,0,0-.58-0.18c-1,0-1.51,1.61-1.63,2.39h0Z" transform="translate(-9.07 -69.23)"/><path class="cls-2" d="M822.62,178.24l-2.46.59a1.45,1.45,0,0,0-.37.09l-44.12,10.54a1.31,1.31,0,0,0-1,.68,5,5,0,0,0-.71,2.82,6,6,0,0,0,.34,2.07c0.16,0.43.71,1.6,1.41,1.43l46.95-11.22a1.31,1.31,0,0,0,1-.68,5,5,0,0,0,.71-2.82,6,6,0,0,0-.34-2.07c-0.15-.4-0.64-1.45-1.27-1.45l-0.14,0h0Z" transform="translate(-9.07 -69.23)"/><path class="cls-2" d="M763.13,193.08a5,5,0,0,0-.71,2.83v72s0,0.09,0,.13a6.12,6.12,0,0,0,.34,1.94,1.87,1.87,0,0,0,1.41,1.43,1.31,1.31,0,0,0,1-.67,5,5,0,0,0,.71-2.83v-0.37s0-.09,0-0.13V195.91a6.12,6.12,0,0,0-.34-2.07,1.87,1.87,0,0,0-1.41-1.43,1.31,1.31,0,0,0-1,.67h0Z" transform="translate(-9.07 -69.23)"/><path class="cls-2" d="M762.67,265.19A4.94,4.94,0,0,0,762,268a6.08,6.08,0,0,0,.34,2.07l0.38,0.76a1.3,1.3,0,0,0,1,.68l7.13,2a1.41,1.41,0,0,0,.45.12l25.84,7.1h0L836,291.39a1.31,1.31,0,0,0,1-.68,4.94,4.94,0,0,0,.72-2.82,6.08,6.08,0,0,0-.34-2.07l-0.38-.76a1.3,1.3,0,0,0-1-.68l-38.48-10.57a1.43,1.43,0,0,0-.42-0.11l-33.44-9.19a1.31,1.31,0,0,0-1,.68h0Z" transform="translate(-9.07 -69.23)"/><path class="cls-2" d="M766.22,193.57a2.51,2.51,0,0,0-.86,1.25,6.06,6.06,0,0,0-.25,3.18q7.25,37.21,14.5,74.43c0.18,0.91.85,3,2.21,2.21a2.51,2.51,0,0,0,.86-1.25,6.06,6.06,0,0,0,.25-3.18q-7.24-37.22-14.5-74.43c-0.15-.77-0.65-2.39-1.63-2.39a1.15,1.15,0,0,0-.58.18h0Z" transform="translate(-9.07 -69.23)"/><path class="cls-2" d="M803.9,222.35H775.77a1.32,1.32,0,0,0-1,.68,5,5,0,0,0-.71,2.82,6.08,6.08,0,0,0,.34,2.07,1.86,1.86,0,0,0,1.41,1.43H808.4a1.31,1.31,0,0,0,1-.68,5,5,0,0,0,.71-2.82,6.1,6.1,0,0,0-.34-2.07,1.86,1.86,0,0,0-1.41-1.43h-4.5Z" transform="translate(-9.07 -69.23)"/><path class="cls-2" d="M773.9,222.35a1.32,1.32,0,0,0-1,.68,5,5,0,0,0-.71,2.82,6.08,6.08,0,0,0,.34,2.07,1.87,1.87,0,0,0,1.41,1.43h6.38a1.32,1.32,0,0,0,1-.68,5,5,0,0,0,.71-2.82,6.08,6.08,0,0,0-.34-2.07,1.87,1.87,0,0,0-1.41-1.43H773.9Z" transform="translate(-9.07 -69.23)"/><path class="cls-2" d="M808.11,223a5,5,0,0,0-.71,2.82,6.08,6.08,0,0,0,.34,2.07,1.87,1.87,0,0,0,1.41,1.43,1.32,1.32,0,0,0,1-.68,5,5,0,0,0,.71-2.82,6.08,6.08,0,0,0-.34-2.07,1.87,1.87,0,0,0-1.41-1.43,1.32,1.32,0,0,0-1,.68h0Z" transform="translate(-9.07 -69.23)"/><path class="cls-2" d="M805,222.35a1.32,1.32,0,0,0-1,.68,5,5,0,0,0-.71,2.82,6.08,6.08,0,0,0,.34,2.07,1.87,1.87,0,0,0,1.41,1.43h9.75a1.32,1.32,0,0,0,1-.68,5,5,0,0,0,.71-2.82,6.08,6.08,0,0,0-.34-2.07,1.87,1.87,0,0,0-1.41-1.43H805Z" transform="translate(-9.07 -69.23)"/><path class="cls-2" d="M851.9,179.58a5,5,0,0,0-.71,2.82q0,40,0,80,0,10,0,20,0,3.2,0,6.41v6.13s0,0.09,0,.13a6.1,6.1,0,0,0,.34,1.93,1.87,1.87,0,0,0,1.41,1.43,1.32,1.32,0,0,0,1-.68,5,5,0,0,0,.71-2.82V192.16s0-.09,0-0.13v-9.62a6.1,6.1,0,0,0-.34-2.07,1.87,1.87,0,0,0-1.41-1.43,1.32,1.32,0,0,0-1,.68h0Z" transform="translate(-9.07 -69.23)"/><path class="cls-2" d="M853,177.73a1.32,1.32,0,0,0-1,.68,5,5,0,0,0-.71,2.82,6.08,6.08,0,0,0,.34,2.07,1.86,1.86,0,0,0,1.41,1.43h23.25a1.32,1.32,0,0,0,1-.68,5,5,0,0,0,.71-2.82,6.08,6.08,0,0,0-.34-2.07,1.86,1.86,0,0,0-1.41-1.43H853Z" transform="translate(-9.07 -69.23)"/><path class="cls-2" d="M880.4,177.73h-9a1.32,1.32,0,0,0-1,.68,5,5,0,0,0-.71,2.82s0,0.09,0,.13a6.08,6.08,0,0,0,.34,1.93,1.86,1.86,0,0,0,1.41,1.43h14.25a1.32,1.32,0,0,0,1-.68,5,5,0,0,0,.71-2.82s0-.09,0-0.13a6.08,6.08,0,0,0-.34-1.93,1.87,1.87,0,0,0-1.41-1.43H880.4Z" transform="translate(-9.07 -69.23)"/><path class="cls-2" d="M886.33,178.93a3.25,3.25,0,0,0-1.11,2.21,7,7,0,0,0,0,2.21l0.25,1a2.5,2.5,0,0,0,.86,1.26l10.26,10.26a0.94,0.94,0,0,0,1.11,0,3.25,3.25,0,0,0,1.11-2.21,7,7,0,0,0,0-2.21l-0.25-1a2.5,2.5,0,0,0-.86-1.26l-10.26-10.26a1,1,0,0,0-.55-0.18,1,1,0,0,0-.55.18h0Z" transform="translate(-9.07 -69.23)"/><path class="cls-2" d="M893.13,185.73a3.25,3.25,0,0,0-1.11,2.21,7,7,0,0,0,0,2.21l0.25,1a2.53,2.53,0,0,0,.86,1.25l4.71,4.71a0.94,0.94,0,0,0,1.11,0,3.25,3.25,0,0,0,1.11-2.21,7,7,0,0,0,0-2.21l-0.25-1a2.53,2.53,0,0,0-.86-1.25l-4.71-4.71a0.94,0.94,0,0,0-1.11,0h0Z" transform="translate(-9.07 -69.23)"/><path class="cls-2" d="M899.07,194a5,5,0,0,0-.71,2.82v20.7s0,0.09,0,.13a6.08,6.08,0,0,0,.34,1.93,1.87,1.87,0,0,0,1.41,1.43,1.31,1.31,0,0,0,1-.68,5,5,0,0,0,.71-2.82v-0.83s0-.09,0-0.13V196.79a6.08,6.08,0,0,0-.34-2.07,1.87,1.87,0,0,0-1.41-1.43,1.31,1.31,0,0,0-1,.68h0Z" transform="translate(-9.07 -69.23)"/><path class="cls-2" d="M899.58,217.43l-24.24,11.3,0,0-0.65.3-2.36,1.1a2.55,2.55,0,0,0-.86,1.26,6.21,6.21,0,0,0-.25,3.17,4.43,4.43,0,0,0,.63,1.72,1.15,1.15,0,0,0,1.59.5l27.29-12.72a2.53,2.53,0,0,0,.86-1.26,6.21,6.21,0,0,0,.25-3.17,4.43,4.43,0,0,0-.63-1.72,1.27,1.27,0,0,0-1-.64,1.37,1.37,0,0,0-.58.15h0Z" transform="translate(-9.07 -69.23)"/><path class="cls-2" d="M898.8,208l-5.3,4.41,0,0-0.68.57,0,0h0l0,0-0.5.42,0,0-2.4,2,0,0L874,228.66c-1.21,1-1.36,3-1.11,4.43a4.35,4.35,0,0,0,.63,1.72,1.13,1.13,0,0,0,1.59.5l15.7-13.07,0,0,2.41-2,0.08-.07,0.32-.27h0l0.13-.1,0.07-.06h0l0.09-.08,0.75-.62,0,0,5.13-4.28c1.21-1,1.36-3,1.11-4.43a4.35,4.35,0,0,0-.63-1.72,1.52,1.52,0,0,0-1.08-.69,0.77,0.77,0,0,0-.51.19h0Z" transform="translate(-9.07 -69.23)"/><path class="cls-2" d="M853.68,182.12a2.53,2.53,0,0,0-.86,1.25,5.19,5.19,0,0,0-.31,1.87c0,0.43,0,.86.06,1.3l0.17,2.11q3.41,43,7,86l0.61,7.49v0.08l0.64,7.85,0-.41q0.06,0.77.12,1.55c0.08,1,.92,3,2.21,2.21a2.53,2.53,0,0,0,.86-1.25,7,7,0,0,0,.25-3.17l0-.55,0,0.54-0.06-.77,0-.33,0,0.28q-0.33-4.13-.67-8.25v-0.09l0-.23,0-.34q-2.35-29.07-4.71-58.13l-2.72-33.52v0.05l-0.27-3.32c-0.07-.81-0.68-2.39-1.65-2.39a1.1,1.1,0,0,0-.57.17h0Zm7.25,107.56-0.06-.7q0,0.35.06,0.7h0Zm3.38-1.45,0,0.24,0-.29v0.05h0Z" transform="translate(-9.07 -69.23)"/><path class="cls-2" d="M872.92,232a5.75,5.75,0,0,0,.38,4.89l1.61,2.38h0l8.67,12.84,9.26,13.72a1.59,1.59,0,0,0,.14.2l17,25.16a1.31,1.31,0,0,0,1,.68,1.86,1.86,0,0,0,1.41-1.43,5.75,5.75,0,0,0-.38-4.89l-35-51.92-0.11-.16-1.5-2.22a1.31,1.31,0,0,0-1-.68,1.86,1.86,0,0,0-1.41,1.43h0Z" transform="translate(-9.07 -69.23)"/><path class="cls-2" d="M872.6,233a5.77,5.77,0,0,0,.38,4.89L909.53,294a1.31,1.31,0,0,0,1,.68,1.86,1.86,0,0,0,1.41-1.43,5.77,5.77,0,0,0-.38-4.89L875,232.25a1.31,1.31,0,0,0-1-.68A1.86,1.86,0,0,0,872.6,233h0Z" transform="translate(-9.07 -69.23)"/><path class="cls-2" d="M874,233a5.81,5.81,0,0,0,.38,4.89l31,49.72a1.31,1.31,0,0,0,1,.68,1.86,1.86,0,0,0,1.41-1.43,5.83,5.83,0,0,0-.38-4.89l-31-49.72a1.31,1.31,0,0,0-1-.68A1.86,1.86,0,0,0,874,233h0Z" transform="translate(-9.07 -69.23)"/><path class="cls-2" d="M875.79,236.83a5.84,5.84,0,0,0,.38,4.89L908.81,295a1.32,1.32,0,0,0,1,.68,1.86,1.86,0,0,0,1.41-1.43,5.84,5.84,0,0,0-.38-4.89l-32.64-53.31a1.32,1.32,0,0,0-1-.68,1.86,1.86,0,0,0-1.41,1.43h0Z" transform="translate(-9.07 -69.23)"/><path class="cls-2" d="M891.43,262.38a5.84,5.84,0,0,0,.38,4.89l17.68,28.87a1.31,1.31,0,0,0,1,.68,1.86,1.86,0,0,0,1.41-1.43,5.84,5.84,0,0,0-.38-4.89l-17.68-28.87a1.31,1.31,0,0,0-1-.68,1.86,1.86,0,0,0-1.41,1.43h0Z" transform="translate(-9.07 -69.23)"/><path class="cls-2" d="M861.57,288.5l-3.23,1.8-2.55,1.42,0,0-3.57,2c-2,1.12-1.3,8,1.11,6.64l9.39-5.23c1.84-1,1.4-6.81-.51-6.81a1.22,1.22,0,0,0-.6.17h0Z" transform="translate(-9.07 -69.23)"/></svg>