<svg id="Layer_1" data-name="Layer 1" xmlns="http://www.w3.org/2000/svg" viewBox="0 0 1274.96 443.33">
  <defs>
    <style>
      .cls-1 {
        fill: #fff;
      }

      .cls-2 {
        fill: #0b2540;
      }
    </style>
  </defs>
  <title>landscape_3</title>
  <rect class="cls-1" width="1274.96" height="443.33"/>
  <g id="skyline_6">
    <path class="cls-2" d="M851.71,351.11c-1.79.28-4.66-.41-3.71-1.54,1.12-1.61,5.3.27,3.8,1.71Z" transform="translate(-2.08 -161.78)"/>
    <path class="cls-2" d="M811.47,367.62c1.81,0.81.79,3.31-1.33,3.27-1.76-.93-0.69-3.4,1.49-3.43Z" transform="translate(-2.08 -161.78)"/>
    <path class="cls-2" d="M268.7,462.71l10.25-143.95c0.8-11.18,16-20.26,14.63-31.4a51,51,0,0,0,3.85,14.12c6.08-4.26,5.91-12.29-.35-16.42a889.69,889.69,0,0,1,8.29-114.66,110.1,110.1,0,0,1,3,40.61c-1,9.17,7.37,17.8,18.07,22.74s23.42,6.88,35.83,8.74c-7.57,3.07-4.93,11.87,1.49,16.09s15.28,6.35,20.82,11.19c4,3.52,2.8,11.09-3.39,10.16,1.87,5.26,14.67-1.29,20.3,2.28,1.64,1,2.15,2.71,2.57,4.26,15.16,55.87,30.23,112.82,21.43,169.4-0.5,3.24,3.95,5.74,8.2,6.79s9.07,1.45,12.34,3.69,3,7.26-1.39,7.82l-164.82-4a150.11,150.11,0,0,0,.22-34.16,62.36,62.36,0,0,0-4.88,32.78c-5.68.41-11.93,0.72-16.56-1.69s-5.27-8.7.1-10.11c-1.7,3.79,5.32,7.79,10,5.68m57.59-104.43q1.44-18.94,2.71-37.89a28.67,28.67,0,0,0,8.16.08c-1.33-2.31-4.94-3.79-8.35-3.43l0-6a8.29,8.29,0,0,1,7,.84c2.7-2.14-1.47-5.46-5.44-5.87s-8.51.24-11.58-1.62c-2.81-1.71-3-4.74-3-7.4l0.35-36.13,20.15,2.31c-1.21-3.29,4-5.83,8.46-6.9s10-2.57,10.4-6-4.73-5.7-9.12-7.05L309.44,232c4.82,6.19,6.57,13.61,4.87,20.61a115.16,115.16,0,0,0-3,35.72c0.51,6.93,1,15.06-6.4,19.46l20.43,1.53c2.2,2.55-.32,6.48-4.43,6.9s-8-2.86-6.87-5.75l-5.1,6.08a36.88,36.88,0,0,1,2.62,17.19,20.68,20.68,0,0,0,2.68-14.65l10.37-.52c1.21,6.31,1.32,14.28-6.46,17.22,5.44,1.22,6.64,6.42,6.05,10.54s-1.72,8.82,2,11.93m7.17-17.18,0.14,9.78c0,1.86,2.68,4.42,4.1,2.87-1.35-3.44-2.71-7.09-1.36-10.53s6.56-6.33,11.14-5a62.93,62.93,0,0,1-1.4,25.1l-6.2,1.9-5.18-9.14a10.6,10.6,0,0,0,1,10.83,11.27,11.27,0,0,1,9.75,1.17A94.46,94.46,0,0,1,342,394.82c2.25,0.43,2.69,2.57,2.67,4.26l-0.52,48.57c0,1.25-.17,2.7-1.6,3.39-3.17,1.55-5.88-2.42-5.87-5.19l0.15-58.55c0-1.1-1.21-2.67-2.37-2a462.35,462.35,0,0,0,.28,67l11.52-.06L348,379.17c0.1-4.34.21-8.72,1.69-12.92,1.23-3.51,3.42-6.93,3.27-10.55-0.15-3.35-2.31-6.56-2.08-9.9s4.84-6.93,8.93-5.39c-4.92-4.4-13.56-6.42-21.1-4.92a8.11,8.11,0,0,0-4.24,1.86,5,5,0,0,0-1,3.76m44.18,37.23c-0.16,3.1.79,7.21,5,7.6L383,372.77a5.83,5.83,0,0,0-.68-3.56c-1.59-2.37-5.84-2.9-9.46-3.14l-16-1q-1.61,42.39-.61,84.81c0,1.23,1,3,2.56,2.5l0.55-68.6c0-2.1.11-4.36,1.87-6s5.87-2.09,7.33-.28l0.73,28c-1.43-4,5.15-6.77,10.5-8.06l2.09-.51c-5.3-1-9.6-4.38-10.49-8.29s1.68-8.13,6.27-10.3M308.38,423a62.11,62.11,0,0,1,3.95,20L312.76,398c-4.6,2.54-3.41,7.67-2.1,11.76s1.39,9.53-3.92,11.19c-7.76-5.73-.28-15.92-4.84-23.24a274.25,274.25,0,0,0,.67,55.83,17.19,17.19,0,0,0,10-1.9c0.83-1.14-1.1-2.36-2.85-2.56s-3.73,0-5.11-.81-1.54-2.36-1.53-3.69l0.1-19.55,5.19-2m-0.71-58.5,2.84,20.09c0.25,1.77.45,3.71-.93,5.18s-5,1.83-6.06.23l-1.06-6.31c-1.33.64-1.52,2-1.58,3.14-0.11,2.27-.17,4.67,1.42,6.62s5.51,3.07,7.94,1.64c1.85-1.09,2.05-3,2.1-4.77l0.38-13.57,1-35.43c0.06-2.24-.71-5.21-3.78-5.43l-0.28,18.25c-0.05,3.51-.13,7.12-2,10.36M291.1,417.92a209.88,209.88,0,0,0,.5-34.82L287,393c-3.72-.39-4.65-3.92-4.68-6.65l-0.21-19.13c-4.42,1.68-4.55,6.16-4.07,9.77l3.81,28.7c-0.32-2.32-.59-4.79.88-6.86s5.43-3.38,8-2a23.73,23.73,0,0,0,.32,21.08m88.79,7.4c-7.13-3.21-8.78-10.08-9.74-16.13l-1.6,38.24c-0.11,2.61,1.55,6.31,5,5.59l-2-18.22c-0.25-2.25-.47-4.61.81-6.67a7.2,7.2,0,0,1,7.52-2.81M370.77,466l33.07,1.12c2.18,0.07,5.16-.38,5.13-2-6.22-1.22-11.72-4.26-15-8.28,0.35,3.63-3.68,6.86-8.35,8.18s-9.85,1.14-14.85.94m26.5-135.49c-5,1.53-8,5.83-6.81,9.66a20.25,20.25,0,0,0,2.72,4.68,25.77,25.77,0,0,1,4,9.86,119.18,119.18,0,0,0,.12-24.21m1.63,30.73a28,28,0,0,0,.8,20.86,16.94,16.94,0,0,0-.8-20.86m-108.69,70.6-3.3,21.23a4.25,4.25,0,0,1,2.32,2.6,30.48,30.48,0,0,0,1-23.83m-9-13.26a8.58,8.58,0,0,1-3.9,7A21.94,21.94,0,0,0,288,424.09a7.5,7.5,0,0,0,3.46,6.34,18.32,18.32,0,0,0-1.53-9.07,14.27,14.27,0,0,1-8.76-2.73m110.6,39-22.13.55c-2.39.06-5.44,0.51-5.83,2.22a56.55,56.55,0,0,0,28-2.77m-0.24-131.55a18,18,0,0,0-6.13-5.17c-3.32,3-3,7.82.63,10.63,2.69-1,4.48-3.14,4.37-5.31m-99.94,17.58a21.59,21.59,0,0,0-1.65,13.72c0.26,1.21,1.35,2.76,3,2.4a35.05,35.05,0,0,0-1.32-16.12m35.27,98.59-0.72-4.21c-4.4,4.08-5.29,10-2.22,14.66a9.52,9.52,0,0,0,2.45-10.37M356,269.5c-2.4.09-4.59,1.49-5,3.21l14.8,1.6c-0.9-3.18-5.39-5.6-9.85-5.31m50.85,49.48a31.33,31.33,0,0,0-15.72-1.6l16.84,5.27c2.35-.09,1-2.87-1.12-3.68m0,40.86,3.92,12A19.13,19.13,0,0,0,412,359.91a10,10,0,0,0-5.17-.57m-124.68-3c0.59-1.69,0-4.36-2.32-4a21.6,21.6,0,0,0,.08,12.08c3.34-1.54,3-5.1,2.16-7.92m126.19,96.72a9,9,0,0,0,8.44.88l-7-6.49a7.38,7.38,0,0,0-.84,5.25m1.2-17.52a9.92,9.92,0,0,0,.11,10.47,9.07,9.07,0,0,0,1-10.58m10.35-53.78c0.15-1.38-3.05-1.75-4.15-.61s-0.56,2.71.27,4,1.94,2.5,1.88,3.88c2.75-1.74,3.29-5,1.18-7.18M356.18,263.29L366,267l-8.13-7.53c-2.19.12-2.24,2.44-1.6,4M334.49,382.82a4.9,4.9,0,0,0,.25-8.51l-1.66,7.62m6.54-119.48c1.73,2.75,8,3,10.2.47a11.36,11.36,0,0,0-9.74-.52M322.78,432.17c-1.41,1.28-.33,3.53,1.87,3.9,1.94-2.62,1.37-6.1-1.37-8.31a4.14,4.14,0,0,0-.8,4.18m88.69-4.07c1.83-2.16,1.22-5.24-1.38-6.94a5.16,5.16,0,0,0,.87,7.35m8.21-28.67c-1.59,2.18-.64,5.17,2.1,6.63a12.82,12.82,0,0,0,0-6.58,1.93,1.93,0,0,0-1.42-1.58c-0.88-.17-1.68,1-0.79,1.13m-48.19-121.9a12.15,12.15,0,0,0,9.54,1.45c-2.31-2.16-6.6-3.09-10.17-2.19m20.83,16.57,0.61-3a8.79,8.79,0,0,0-6.64,0c0.09,1.93,3.14,3.45,5.65,2.82m-67.3,73.31c2,0.63,3-1.92,1.93-3.31a25.9,25.9,0,0,1-7.43,1.47,6.19,6.19,0,0,0,5.58,1.82m11.9-94.64a3.6,3.6,0,0,0,2.94,2.82,7.3,7.3,0,0,1,1.8-5.38l-4-.51-0.88,3m41.9,17.28c1.62,0,3.14-1,3.4-2.11-2-.55-4.58-0.9-6,0.28s1.61,3.36,2.57,2m-86.59,50a2.64,2.64,0,0,0-.66-2.89,7.42,7.42,0,0,0-4.08.51c-0.34,1.76,2.71,3.31,4.87,2.48m-3.21-21,2.28,5.2c0.76-1.17,1.55-2.44,1.22-3.72a3.15,3.15,0,0,0-3.9-1.77M400.7,307.61c0.73-.68-0.49-1.72-1.66-1.63a3.78,3.78,0,0,0-2.62,1.59c0.15,1.71,4.49,1.78,4.75.08m-111.57,25a7.08,7.08,0,0,0-.08-7,7,7,0,0,0,.06,7m34.69,87.2a8.54,8.54,0,0,1-1.57,5.74c3.17-.51,4.32-4,1.79-5.53m-36,42.09c-0.42,1.21,2.85,1.36,3.28.15s-1-2.34-2.49-3l-0.77,2.9M299.6,351.75c-0.93.58,0.92,1.63,1.85,1s0.71-1.67.25-2.49-1.1-1.7-.75-2.56a3.55,3.55,0,0,0-.85,4m64.84-56.19c-1.77.92-.61,3.42,1.57,3.36,1-1.17.06-3-1.78-3.33m54.1,135.12c0.3,1,2.74.44,2.75-.58s-1.33-1.75-2.58-2.21l-0.72,2.86Z" transform="translate(-2.08 -161.78)"/>
    <path class="cls-2" d="M208.56,412c2.24-.93,4.56,2.28,2.24,3.1l-2.38-2.8Z" transform="translate(-2.08 -161.78)"/>
    <path class="cls-2" d="M689.13,363c6.7-1.05,13.66-.58,20.49-0.1l21.1,1.48c2,0.14,4.25.34,5.76,1.36s1.64,3.17-.24,3.78L691,368.32c-3.53-.1-8.33.64-8.33,3.2l0.09,81.85c0,2.86-1.67,6.81-5.53,6.27-8.74-1.21-17.09,2.56-25.43,4.81s-20,2.06-23.58-3.83c-1.22-2-1.21-4.26-1.18-6.44q0.57-36.64,2.15-73.26l27.92,2.87c2.39,0.25,4.94.48,7.14-.25a5.61,5.61,0,0,0,3.57-7.91c-1.43-2.87-4.74-5-8-6.93,1.91-5.77,12.63-8.59,19.67-5.57,2.84,1.22,6.41.4,9.63-.11M660,389c0.14,1.59,3.45,2.41,4.9,1.22-0.66-1.29-3-1.94-4.7-1.27Z" transform="translate(-2.08 -161.78)"/>
    <path class="cls-2" d="M804.35,538.77c2.15-.83,5.19.69,4.88,2.44a7.49,7.49,0,0,1-4,.56,3,3,0,0,1-.73-2.89Z" transform="translate(-2.08 -161.78)"/>
    <path class="cls-2" d="M744.18,396.78a30.8,30.8,0,0,1-13.17-2,51,51,0,0,1-.22-15.91,22.13,22.13,0,0,0,6.31,13.42c-1-6.83-1.9-14.21,2.94-20.11,2-2.4,4.93-5.15,3.19-7.65A16.53,16.53,0,0,1,742.6,346c-2.17-1.39-5.89-.12-7,1.83S735.28,352,736,354c-3,1.43-7.52.61-9.22-1.67,0.93,3.67-3.44,7.16-8.38,8.19s-10.21.26-15.24-.51c-1.7-3.41-3.43-7-2.93-10.57s3.93-7.28,8.89-7.74l22.41-2.07c5.18-.48,11.34-0.7,14.64,2.24,2.23,2,2.35,4.75,2.36,7.3l0.32,51.52c0.1,16.33.16,32.91-6,48.61a47.56,47.56,0,0,0-13.29,7l2.6-36.8,2.51,26.28c0.11,1.14,2.39,2.45,2.59,1.31l-0.55-25.47c0-1.23-.12-2.59-1.31-3.47s-3.82-.62-4,0.6a6.85,6.85,0,0,1-.67-4.41l13.82,0.75-0.43-18.28m-31-46.16,0,8.32c3.27,0.34,6.12-2,6.48-4.41s-1-4.7-2.42-6.88c-0.24-1.27-3.12-1.64-4-.5l-0.06,3.48m12.18-3.92c-1.81.81-.79,3.31,1.33,3.27,1.76-.93.69-3.4-1.49-3.43Z" transform="translate(-2.08 -161.78)"/>
    <path class="cls-2" d="M403.08,502.41c1.94,1.24,1.21,4-1.22,4.57-2-1.57-1.57-4.38.82-5.61Z" transform="translate(-2.08 -161.78)"/>
    <path class="cls-2" d="M378.8,249.06a21.14,21.14,0,0,0,7.79,1.51c2.71-.15,5.48-1.68,5.4-3.65A224.13,224.13,0,0,1,395,201c2.18,2.37,2.51,5.36,2.77,8.2l1.95,21.15,4.61,50.11a6.43,6.43,0,0,1-6.48-6.75c0.19-3.07,1.87-6.13,1.12-9.16-1.12-4.52-7.16-9.58-2.72-12.84-11.31,5-28.23,1-33.27-7.88Z" transform="translate(-2.08 -161.78)"/>
    <path class="cls-2" d="M404.21,515.65a4,4,0,0,1-2.59,2.87,5.2,5.2,0,0,1,0-5.77c1.71-.61,2.62,1.52,2.28,2.88Z" transform="translate(-2.08 -161.78)"/>
    <path class="cls-2" d="M207.72,505.39c0,2.4-.23,5.07-2.58,6.75a367.46,367.46,0,0,1-3.58-56.83c0-2.62.72-5.88,4.16-6.68q1.65,14.05,2.05,28.16C208,486.33,207.88,495.86,207.72,505.39Z" transform="translate(-2.08 -161.78)"/>
    <path class="cls-2" d="M337.63,495.48c-2.41,0-2.79-2.5-2.3-4.22a3.89,3.89,0,0,1,4.48,0c1.11,1.48.07,3.59-2.09,4.22Z" transform="translate(-2.08 -161.78)"/>
    <path class="cls-2" d="M805.83,362.49c-1-5,2.89-10.27,9.11-12.52,6.68-2.41,14.63-1.39,21.94-.31-3.3,3.4-11.35,0-16.26,2.13-2.63,1.15-3.55,3.56-4.09,5.75s-1.08,4.59-3.35,6.08S806.27,364.69,805.83,362.49Z" transform="translate(-2.08 -161.78)"/>
    <path class="cls-2" d="M1119.18,449.87a4.47,4.47,0,0,1-3.26-3.49l7.2,3.15-4,.62v-0.28Z" transform="translate(-2.08 -161.78)"/>
    <path class="cls-2" d="M523.76,597.68c-13.82.92-27.72,1.26-41.59,1a11.15,11.15,0,0,1-4.52-.7c-1.8-.86-2.4-2.8-1.29-4.14l26-1.23C510.33,592.26,520.07,592.58,523.76,597.68Z" transform="translate(-2.08 -161.78)"/>
    <path class="cls-2" d="M984.54,497.78c1.79,0.14,1.89,2.26.41,3s-3.47.51-5.23,0.25c-2.22-1.65,2.2-4.7,4.36-3Z" transform="translate(-2.08 -161.78)"/>
    <path class="cls-2" d="M689.91,466.38a28.11,28.11,0,0,1,9.56-3.77l2.52,4.27a14,14,0,0,1-8.12,2l1.7,4.26-11.1-2.38c-2.53-.54-5.19-1.13-7-2.5s-2.52-3.78-.72-5.18A20.4,20.4,0,0,1,689.91,466.38Z" transform="translate(-2.08 -161.78)"/>
    <path class="cls-2" d="M403.27,523.86c0.4,1.51-2.07,3-4,2.38-0.23-2,0-4.64,2.62-5.4l2.44,2.82Z" transform="translate(-2.08 -161.78)"/>
    <path class="cls-2" d="M910.13,427.19c-5-.69-8.05-5.35-5.63-8.6a13.17,13.17,0,0,1,10.25,8.82c1.18,4,.34,8.06-0.51,12.07a16.72,16.72,0,0,1-9.31-5.08l5.22-1.45c-2.33-.46-4.24-1.88-4.81-3.58A7.09,7.09,0,0,0,910.13,427.19Z" transform="translate(-2.08 -161.78)"/>
    <path class="cls-2" d="M343.45,492.5l2.13-3a5.89,5.89,0,0,1,3.86.51c0.66,1.65.52,3.73-1.43,4.7s-5.4-.64-4.21-2.13Z" transform="translate(-2.08 -161.78)"/>
    <path class="cls-2" d="M1007.22,499.52c1.71-3.07,8.88-3.22,10.83-.23l20.76-1.8a12.25,12.25,0,0,1,5.38.33c1.61,0.63,2.5,2.37,1.23,3.32a5.38,5.38,0,0,1-2.51.74A96.42,96.42,0,0,1,1007.22,499.52Z" transform="translate(-2.08 -161.78)"/>
    <path class="cls-2" d="M150.21,513.89l-11.54,0c0.32-2.2,3.17-4,6.22-4s5.85,1.91,6.1,4.11Z" transform="translate(-2.08 -161.78)"/>
    <path class="cls-2" d="M344.53,527.79a88.36,88.36,0,0,1-1.11-25.59,3.93,3.93,0,0,1,.9-2.5,4.55,4.55,0,0,1,5.26-.33L349.64,523C349.64,525.43,347.52,528.93,344.53,527.79Z" transform="translate(-2.08 -161.78)"/>
    <path class="cls-2" d="M1064.79,502.11c-2.66-.12-2.45-3.45,0-4.21s5.22,0.16,7.57,1.07c1.82,0.75.86,3-1.1,3.54s-4.12-.09-6-0.68Z" transform="translate(-2.08 -161.78)"/>
    <path class="cls-2" d="M340,503.29l0.1,18.54c0,2.43-2.22,5.91-5.1,4.66a147,147,0,0,1,.66-27.71C338.44,498.12,339.95,501.13,340,503.29Z" transform="translate(-2.08 -161.78)"/>
    <path class="cls-2" d="M1055.77,485.19c2.81-.72,6,1.77,4.8,3.75a25.45,25.45,0,0,1-11.34.06c0.41-2.08,3.63-3.62,6.43-3.07Z" transform="translate(-2.08 -161.78)"/>
    <path class="cls-2" d="M386.93,557.23c-1.07,1.18-3.52.35-5.29-.22-3.74-1.2-8-.62-12.11-0.6s-8.85-.93-10.3-3.7c8.47-.9,17.48-1.13,25.23,1.51C386.12,554.79,387.95,556.12,386.93,557.23Z" transform="translate(-2.08 -161.78)"/>
    <path class="cls-2" d="M670.7,472.06l-5.15.08c-0.77-1.91,2.28-3.71,5-3.55s5,1.55,7.06,2.87c-1.11,1.89-5.27,2.26-7,.63Z" transform="translate(-2.08 -161.78)"/>
    <path class="cls-2" d="M1006.4,510.1c-1.2,2.54-5.79,3.05-9.49,3a130,130,0,0,1-17-1.48c-2.27-1.26-.42-4.28,2.41-4.53a7.43,7.43,0,0,1,6.62,3.27C993.68,507.27,1001.53,507.16,1006.4,510.1Z" transform="translate(-2.08 -161.78)"/>
    <path class="cls-2" d="M795.23,368.7c-1.53-3.56,2.35-7.78,7.47-8.12-0.15,3.3-3.08,6.46-7.24,7.8Z" transform="translate(-2.08 -161.78)"/>
    <path class="cls-2" d="M663.41,377.35c-5.55,4.14-15.9,4.09-21.38-.09a65.56,65.56,0,0,0,19.1-2.65Z" transform="translate(-2.08 -161.78)"/>
    <path class="cls-2" d="M211.8,435.46a2.85,2.85,0,0,1-.61,2.9,17,17,0,0,1-.27-14,10.74,10.74,0,0,1,.5,11Z" transform="translate(-2.08 -161.78)"/>
    <path class="cls-2" d="M412.23,499.17a142.32,142.32,0,0,1,.66,17.14c0,1.44-2.13,3.4-3.21,2.19C406.11,512.27,407.1,504.78,412.23,499.17Z" transform="translate(-2.08 -161.78)"/>
    <path class="cls-2" d="M359.21,372.7v-3.51a18.12,18.12,0,0,1,9.74,0l-0.66,6.24L359,373.21Z" transform="translate(-2.08 -161.78)"/>
    <path class="cls-2" d="M627,374.6a10,10,0,0,1,4,.33,2.81,2.81,0,0,1,1.94,2.15,36.11,36.11,0,0,1-26.31-1.46Z" transform="translate(-2.08 -161.78)"/>
    <path class="cls-2" d="M1056.35,498.44c3.26-.74,5.07,3.36,2.56,5s-6.41,1.41-9.78,1a6.12,6.12,0,0,0,3.66-5.15,6.18,6.18,0,0,1,3.88-.53Z" transform="translate(-2.08 -161.78)"/>
    <path class="cls-2" d="M403.3,490.8a27.5,27.5,0,0,1,13.81,1.27c-2.72,5.07-13.88,6.13-18.3,1.73l3.89-3.38Z" transform="translate(-2.08 -161.78)"/>
    <path class="cls-2" d="M214.33,405.93a1.36,1.36,0,0,1,1.54,2.18,140.73,140.73,0,0,1-17.33-.35c2.36-4.19,11.4-5.2,15.39-1.72Z" transform="translate(-2.08 -161.78)"/>
    <path class="cls-2" d="M1052.66,518.19c-4.06-1.55-1.73-6,1.06-8.68,3.64,1.9,5.76,5.24,5.4,8.48a8.55,8.55,0,0,1-6.46,0v0.22Z" transform="translate(-2.08 -161.78)"/>
    <path class="cls-2" d="M823.62,355.35c17.9-2.54,38.88-4.49,52.21,4.54,9.81,6.64,12,17.13,13.73,26.79l8.7,50L773.91,450.65c62.15-2.39,124.3-4.78,186.51-6.31-7.3-5.79-9.87-14.51-6.46-22,7.31-.8,14.19-3.54,19-7.59l-15.58,2.69c24.5-16.11,63.71-19,92.19-6.83l20.21,0.74-14.11,5,17.72,2.73,0.36,22.26c21.53-8,50.17-4.27,66.49,8.69a82.27,82.27,0,0,1-29.19-9.54,23.29,23.29,0,0,0,.15,17.21l108.57-3c19.75-.55,40.95-15,56.17-5.88q2,74.94.14,149.9l-381.29,0c-6,0-14.24-1.85-13.1-6.1-0.74,4.06-7,7.1-12.43,6.06l4.95-12.63c-7.82,5.51-18.84,8.54-29.73,8.19a32.26,32.26,0,0,1,18.41,4.38l-337.9.08-4.66-9.28c-17.82-2.26-40.79-2.78-48.88,9q-80,1.46-160-1.91c-8.49,5.05-23.39,2.13-27.22-5.34,4.5,3.73-5.23,7.74-12.06,7.73l-206.88-.2,15.09-2.73a57.79,57.79,0,0,0-28.8-4.82c4,1.44,6.84,4.39,7.37,7.6H2.08V523.19l32.34,0c-0.12,6.55,7,12.78,15.85,13.94s18.52-2.9,21.54-9.07c-2.17,5.26,1,11.44,7.33,14.42,16.85-3.39,30.3-14.41,32.89-27,5.21,0.22,10.48-1.85,13.09-5.13,0.51,6.7,14.51,4.68,23.7,3.95,15.47-1.22,30.17,10.33,27.26,21.42,28.16-38.05-1.58-86.28,15.41-127.67l1.18,39.7,10.53-36.9-10.12,86.64c-0.83,7.14-1.61,14.59,2.11,21.22s13.43,12.09,23.05,10.48l-11.9,12.1,23,3.76-9.81-4.55a685.55,685.55,0,0,1,.53-134.25c10.68-1.48,21,4.91,24.56,12.37s2,15.62.36,23.42q-8.45,40.06-19.09,79.85l16.26,18,4-57.08c0.3-4.2,2.5-9.76,8.3-9.56l164.63,5.54c13.92,0.47,28.52.84,41-3.6s21.82-15.41,16.56-24.78c-4.06-7.25,19-12.61,13.21-19.22-14.28-16.34-13.58-38.89,1.7-54.75-2.52,4.79,4,10.7,11,10l-7.52-14.54c11.6-22.09,53.61-32.18,81.08-19.47,5.5,8.82,14.34,16.53,25.29,22.07l-30.89-9.22c11,8.46,25.53,14.5,41.16,17.13-9.61,6.16-27.4,2.56-31.22-6.33l5.81,79.78,2.33-70.12c8.65,0.11,11.5,8.38,11.76,14.66l2.12,51.86a314.81,314.81,0,0,1,5.87-62.41A403.27,403.27,0,0,0,611.75,456l2.85-66.43c0.18-4.25,8.29-9.38,9.36-5.19l-1.54,75.78-32.33-1.65,15.85,3.5a52.16,52.16,0,0,1-32.35-2.55c6.38-9.39,1.3-22-11-27.48,24.46,15.65-13.65,46.79,1.61,67.7-10-11.24,3.4-27.13,21-31.15s36.52,0,54.08,4.08L623.83,474q41.16,2.1,82.43,2.74c6.92-8-4-20.27-16.83-19l-2.29-77c-0.16-5.51,7.46-9.8,15-10.35s14.92,1.63,21.92,3.76a997.14,997.14,0,0,0,4.81,153.09l4.35-68.47c20.67-16.23,54.06-23.28,83.5-17.64l-35.89-4.62-2.25-44.91L769.27,437l-3.62-45c10.18-2.18,17-10.54,14.8-18.07,9.66-5,24.46-3.91,32.45,2.5l-14.79,6.67L810.87,384l-4.12,11.38c-0.48-4.51-7.68-7.92-13.56-6.43,11.21,2.83,8.63,17.69-3.19,18.42a49.49,49.49,0,0,0,20.43,3.14l6.17-30.21a25.57,25.57,0,0,1,2.26,20L831,402.87c-7.84-11-10-24.06-5.84-36.06l-4.73,11.09c-6.29-5.49-.79-15.45,9-16.27A110,110,0,0,0,833.19,399q2.1-17.8,3.36-35.65a72.31,72.31,0,0,1,6.9,46.42,141.36,141.36,0,0,0,6.83-43l6.8,36.85,3.07-38c8.53,10.83,10.16,24.38,4.35,36.12L878,404.56a49.64,49.64,0,0,1-4.34-40.63,134,134,0,0,1-50-8.57M1076.35,512.8c-5.53,1.3-12.15-.63-14.9-4.35a17.55,17.55,0,0,1,14.21,1c1.91-2.86,3.88-5.94,3.31-9.09s-4.86-6.16-9-5.2c-2.8.64-4.93-1.81-5.92-3.82,2-3.37,9.27-.54,14.09-1.66s5.66-5.83,5.38-9.54,0-8.33,4.63-9.89c2.89-1,6.27-.24,9.46-0.26s7-1.64,6.37-3.9a196.24,196.24,0,0,0-49,.66,14.4,14.4,0,0,0-4.09,1c-6.93,3.28.82,12.53-5,16.79-3.53,2.59-9.41,1.47-14.33.79a59.31,59.31,0,0,0-15.69-.06,8.06,8.06,0,0,0,2.6,6.6l3.68-.41L1023,487c3.83,1.68,8,3.43,12.45,3.23,2.24-.1,4.49-0.69,6.67-0.3s3.93,2.47,2.36,3.63a57.94,57.94,0,0,1-33.31-1.32c1.61-2.09.79-5-1.83-6.47a9.37,9.37,0,0,0-9.08.38c3.22-1.27,6.18,2.86,3.88,4.93s-6.51,2.18-10.17,2.12l-21-.36c-3-.05-3.85,2.9-3.72,5.06l1.6,28.18a23.63,23.63,0,0,0,12.28,1.72c1.21-1.92-2.26-4.29-4.83-3.31-1.28-2.23-1.76-5.37,1.14-6.55a10.14,10.14,0,0,1,3.55-.49l21.28-.44c5.29-.11,11-0.14,15.37,2,2.94,1.44,5,3.75,8.23,4.87s8.29-.09,8-2.66q-14-5.34-27.59-11.24c-0.35-2.56,5.11-2.65,8.54-2a53.59,53.59,0,0,0,20.57,0,18.55,18.55,0,0,1,6-.64c2,0.26,3.89,1.64,3.38,3.06a40.18,40.18,0,0,1-18.24,2.65c3.32,4.19,11.33,6,17.34,3.93a6.54,6.54,0,0,1-2.56,6.65,189.57,189.57,0,0,1,21.49-.38c1.06-1.14-.32-3-2.22-2.94-0.77-1.68,2.22-3.23,4.6-2.81s4,1.95,5.44,3.39c3.59-1.64,5.27-5.19,3.82-8.09m-742.8,23.88,5.94,2.6c2.89,1.59,0,5.23-3.56,5.64s-7.06-.92-10.62-1.4-8.25.54-8.62,3.16l20.75,0.94a7.92,7.92,0,0,0,3.42-.34c1.57-.68,1.9-2.21,2.06-3.53l1.81-14.89a4.65,4.65,0,0,1,4.88,2.78c0.58,1.6.17,3.29,0.21,4.95,0.09,3.43,2.25,6.81,5.8,9.07l17.78-.37c3.42-.07,8.23-1.84,6.39-3.93-6.81-3.61-18.35,3.49-24.14-1-2.15-1.66-2.21-4.19-2.14-6.47l1.35-43.59c0-1.57,0-3.37-1.67-4.4a9.6,9.6,0,0,0-4.36-1l-14.75-1c0.67-1.8-1.42-3.86-4-3.93q-0.22,25.76,1.11,51.51c1.05-1.88,4.66-2.69,7-1.63s3.05,3.69,1.43,5.34l-6.14,1.41m556.79-5.3a45.7,45.7,0,0,1-23.3,0c-2-.55-3.73,1.14-5.42,2.12-2.38,1.39-5.69,1.47-8.74,1.5l-53.23.42,0,10,66.88,1.16c3.31,0.06,8.06-1.35,6.63-3.51-3.37.71-7.79,0.08-9-2.3s4.12-5,5.87-2.82l13.58,7.47a37.82,37.82,0,0,0,6.79-14M437.4,559c-3.12-5.64-11.41-9.54-19.78-9.31a24.65,24.65,0,0,1-6.48,7.38c-5.14-3.37-12.92-4.44-19.4-2.67l0.52-3.84-37.73-2.49c1.86,3-.92,6.73-4.89,8.39s-8.77,1.82-13.36,1.93c-16.17.4-34.39,0.23-45.71-8.16-3.17,2.21-1.72,6.38,1.76,8.34s8.15,2.27,12.54,2.44a399.74,399.74,0,0,0,47.54-1c4.51-.36,9.28-0.77,13.42.57s7.11,5.19,4.8,8c2.76-.53,4.33-3.13,3-5,9.66-3.21,20.29-6.5,30.58-4.59,2.66,0.49,5.44,1.33,8,.69,4.86-1.19,5.72-6.63,10.61-7.74A26.65,26.65,0,0,0,437.4,559m-10.56-73-32.31-.68-0.27,37.47c0,3.22,4.1,5.82,8.45,6.49s8.84-.12,13.14-0.91c-3.07-.42-6.53-1-8-3s1.57-5.18,4.18-3.93a5,5,0,0,0,5.39-1.3c1.08-1.32,1.11-2.94,1.11-4.48l0-26.8a11.53,11.53,0,0,0,8.38-2.83M280,483a3.34,3.34,0,0,0-.56,1.93,257.48,257.48,0,0,0,1.57,52c5.45-3.14,6.16-8.84,6.43-13.88l2-37.57c-2.18-2.49-7.45-5-9.47-2.48m1.16,64.5c2.63-.19,5.39-0.52,7.43-1.74s3-3.61,1.29-5.09a77.75,77.75,0,0,1-23.18-1.57c0.26,3.75-7.27,4.42-12.34,3.69a386.55,386.55,0,0,1,1.1-64.19c-5.15,5.89-5.34,13.29-5.36,20.27L250,541.57a4.44,4.44,0,0,0,.55,2.64c1,1.52,3.59,2.08,5.89,2.41a114.49,114.49,0,0,0,24.78.87m179.46-68.43c-5.92,15.8-4.27,32.51-2.57,48.84a6.69,6.69,0,0,0,1.62,4.41c1.26,1.24,4,1.84,5.54.79l1.06-48.9c0.06-2.72-2.51-6.63-5.65-5.15M344.19,570.17c4-1,8.12.89,12,2.17s9.39,1.63,11.35-1.08A15.26,15.26,0,0,1,357,568.46c-6.73-5.32-18.62-3.61-28.13-1.48,1.21,2.11-2,4.34-5.18,4.49s-6.1-1-9.14-1.53-6.88-.39-8.54,1.55a33.11,33.11,0,0,0,7.08-.18c-3.6,3.6.33,9.63,6.45,9.9,3.31,0.14,3.61,4.22.66,5.33s-6.65-.13-8.83-1.95c-0.34,3.5,4,6.86,8.8,6.87,0-2.29,2.42-4.45,5.5-4.93l-1.87-5.82a26.17,26.17,0,0,0,12-5.71c-2.32.33-4.28-2.06-2.79-3.39,0.86,1.42,3.68,1.53,5.62.88s3.52-1.82,5.54-2.31m193.62-99.11c1.65-2.56-3.44-4.51-7.29-4.94-5.77-.64-12.08-1.22-17.08,1s-6.7,8.36-1.62,10.45c3.92,1.62,2.77,5.87,1.19,8.93s-2.39,7.43,1.72,8.78a5.71,5.71,0,0,0-5.57,6.7c0.52,2.93,2.46,5.77,1.91,8.69-0.27,1.42-1.11,2.87-.48,4.22s3.89,1.87,4.33.48a69.68,69.68,0,0,0,.34-41.46c-0.37-1.23-.77-2.56-0.08-3.72a3.36,3.36,0,0,1,4.22-1v6.12A90.76,90.76,0,0,0,533.9,473c1.55-.37,3.22-0.88,3.91-1.95M447.5,521.44a8.75,8.75,0,0,0-4.22-.56,8.59,8.59,0,0,0,.66,9.07c0.47,0.67-.6,1.35-1.54,1.68A42.85,42.85,0,0,1,427.89,534l5.38-6.63c-4.37,1.09-8.88,2.24-12.28,4.52s-5.41,6-3.54,9.07c2.72,4.47,11.07,4.91,17.79,4.67l12.09-.43c2-.07,4.7-0.9,4-2.24q-14,.28-28.07-0.24c2.34-2.37,6.61-3.66,10.58-3.19,0.31-1.79,2.36-3.36,4.81-3.67a4.24,4.24,0,0,1-.71,4.16c0.61,2,4.86,2.15,6.78.67s2.11-3.7,2.2-5.73l0.6-13.46m80.79,22.09a37.78,37.78,0,0,1-16.41-2.34c-2.72-1.07-5.22-2.46-8.13-3.22-5.15-1.33-10.82-.5-16.23.08a163,163,0,0,1-34.35,0c4.25,4.54,12.8,5.79,20.33,5.34s14.91-2.2,22.47-2.07c16.24,0.27,32.76,9,47.47,4-2.83-3.37-9.73-2.28-15.15-1.86M85,582.44L83.45,563a29,29,0,0,0,15.13-2.45c2,4.26,6.12,8,11.42,10.34,1.81-.57,2.84-2.19,2.25-3.56-3.58,1.5-6.57-2.55-7-5.53l-1.66-11.47a3.76,3.76,0,0,0-4.05.17c1.92,2.63-2.18,5.54-6.12,6.37s-8.57.93-11.25,3.18l-12,10.07a11.49,11.49,0,0,0,8-1.81l2.68,12.32L85,582.44M1095.16,523c-3-.31-5.59-1.67-8.44-2.42s-6.67-.63-8.19,1.28c7.47,4.3,17.84,5.82,27,3.95,2.92-.59,6,0.33,8.81,1.08a81.26,81.26,0,0,0,31.35,1.84c2.36-.32,5.3-1.41,4.77-3.11l-25.19,0c-2.71,0-6.07-.33-7-2.19-1.37-2.91-6.88-3.39-10.95-2.52s-8,2.57-12.23,2.14M551,515.37l8.53-3c-4.56-2.81-11.58-3.29-16.77-1.14s-8.21,6.78-7.2,11.05c5.6-4.95,18.47-3.43,21.62,2.55,1.24,2.36,6.44,2.17,8.59.19s2-4.76,1.63-7.27a92.89,92.89,0,0,0-16.39-2.4m410.33,16.4-0.05,4a228,228,0,0,0,53.46.14c-0.79-2.24-4.27-3.45-7.45-3.53s-6.28.67-9.44,0.93c-12.29,1-25.23-5.21-36.52-1.54m-771.74-6c0.8,5.55-4.2,11.27-11.47,13.1-1.46.37-3.14,0.67-3.95,1.63-1.7,2,2.41,4.29,5.57,3.77s5.55-2.39,8.53-3.29,7.58,0,7.5,2.34c4.44-2.23,6.66-6.54,5.33-10.33s-6.14-6.8-11.51-7.21m444-16.25,37.34-.63c12-.2,24-0.39,35.76,1.31,1.15-1.8-2.6-3.08-5.33-3.21q-36.89-1.86-73.92-1.13c-2,1.93,2.81,3.72,6.15,3.66M1112,505.45c2.82,1.12,5.73,3.3,4.5,5.45a8,8,0,0,0,4.4.68,33,33,0,0,0,.55-10.62,213.75,213.75,0,0,1-34.23-2.05c-2.73,4.52-1.34,10.18,3.36,13.75a9.75,9.75,0,0,0,6.86,2.15c2.56-.32,4.53-2.67,3-4.19a17.87,17.87,0,0,1-12.67-3,3.52,3.52,0,0,0,1.6-4.47,43.48,43.48,0,0,1,22.64,2.27M688.45,523.17c3.55,0,7.9-.37,9.28-2.75-13.46-.8-27-1-40.48-0.73a14,14,0,0,0-4,.48c-4.93,1.61-3,7.65,1.93,9.2s10.65,0.14,15.7-1.27a25.42,25.42,0,0,0-16.23-1.4,3.6,3.6,0,0,1-.7-3.46l34.47-.07m-188.08,42.2c3.26-.25,7.59-2,6-4.09-13.36.79-26.89,1.57-40.09-.12a84,84,0,0,1-22.43-5.87,2.15,2.15,0,0,0-.64,3.83c1.33,1.14,3.46,1.57,5.46,1.94,9,1.67,18.11,3.35,27.38,4.16a148.91,148.91,0,0,0,24.28.14m395.7-27.65c-1.66,2.65,3.34,4.81,7.27,5.41a222.65,222.65,0,0,0,44.36,2.18c2.46-.12,5.63-0.82,5.64-2.6a33.47,33.47,0,0,0-20.43.08c-2.06.7-4.48,0.34-6.7,0l-30.13-5m-790.38.76c-1.95,1.34-3.81,3.85-1.55,4.91a245.71,245.71,0,0,0,36-23.34c-5.61-.91-10.82,2.18-15,5.06l-19.43,13.38M877.3,365.27c-3.57,1.94-3.3,5.82-2.67,9l4.95,25.15A108.86,108.86,0,0,0,881,366.91l-3.74-1.64m-319,100.56a53.63,53.63,0,0,0,.35-26.8,43.42,43.42,0,0,0-3.88,18.44c-3.91,0-7.15,3.19-6,5.91s6.28,4,9.53,2.45m367.92,66.88a71.81,71.81,0,0,0-23.54-3.15,6.83,6.83,0,0,0-2.39.37,1.89,1.89,0,0,0-1.31,2c3.66,4.18,11.47,5,18.27,5.31a17.26,17.26,0,0,0,6.57-.5c2-.71,3.42-2.56,2.4-4M1204,463.94a1.68,1.68,0,0,0,.16-2.76c-1-2.08-5.15-2.23-7.76-1.12s-4.49,3-7.19,4a24.62,24.62,0,0,1-6.61,1.09l-16.27,1.19,0.13,4.33,22.16-2.56c2.8-.32,6.51-2,4.83-3.7a45.7,45.7,0,0,1,10.55-.47m-263.31,69c-1.77-1.07-2.4-3-1.49-4.56-2.2-1-5.14.85-5.07,2.71s2.07,3.38,4.21,4.41A27.89,27.89,0,0,0,956.88,537c-4.89-2.35-6.35-7.74-3-11.26-5.53.87-10.47,3.56-13.16,7.17M937,580.4a11.4,11.4,0,0,0,3-8.87l-9.83,13.8c-1.32,1.85-2.75,3.8-5.21,4.88s-6.25.86-7.56-1c-0.44,2.88,2.77,5.78,6.74,6.1A217.32,217.32,0,0,1,942,582.75l-5-2.36m125.4-39a74,74,0,0,0-25.89-2.27,128.37,128.37,0,0,0-16.41,2.81,137.92,137.92,0,0,0,42.29-.53m-581-11.07L481,521.17c-2.86-1.66-7.46.15-8.59,2.67s0.05,5.26,1.23,7.78a42,42,0,0,0,20.6.37,20,20,0,0,0-12.88-1.71m65-114.05,0.31,6.14c0.06,1.12,1.32,2.68,2.5,2a147,147,0,0,0-.81-38.81c-3,10-2.51,20.44-2,30.71m548.75,59.23a114.18,114.18,0,0,0,23.9-.88,41,41,0,0,0-27.34-.72,18.31,18.31,0,0,0-2,13.87,4.48,4.48,0,0,0,4.76,0,9.44,9.44,0,0,1,.65-12.23M618,507.24a41.25,41.25,0,0,0,.86,31.42,57.38,57.38,0,0,0-.86-31.42M673.8,528l38.93,2.62c3.4,0.23,8.13-.34,8.18-2.82a310,310,0,0,0-47.11.2M499.57,471.92l-24.78-2.53c0.38,2.08-1,4.28-3.41,5.44a45.92,45.92,0,0,0,28.18-2.91M569,389a57.88,57.88,0,0,0-.91,30.85,2.86,2.86,0,0,0,1.86,2.37A94.42,94.42,0,0,0,569,389M15,531.61c-2.32-3-8-4.38-12.32-3,7.9,6.13,21.24,8.19,31.89,4.91a66.25,66.25,0,0,1-17.49-5.42L15,531.61M514,374.68c5.11,0.82,10.79-1.65,12.22-5.29-4.34-1.84-10.65-.4-12.77,2.91a22,22,0,0,0-8.14-1.17c-2.77.29-5.46,2-5.16,4a75.88,75.88,0,0,0,13.58.43m634.06,136.78-18.41,2.43,32.21,2.17c3.42,0.23,7.62.19,9.33-2-4,.45-8.13.9-12,0.15s-7.57-3-7.89-5.94l-3.2,3.17M298,501.92l0.16,5.35c0,1.38.21,2.95,1.72,3.78,1.89,1,4.84.16,6-1.33s1.15-3.32,1.07-5-0.23-3.71-1.71-5.15-4.82-2-6.38-.6a3.55,3.55,0,0,0-.89,3M866.6,419.63a88.21,88.21,0,0,0,23.62,1.2l0.91-3.83-23.64-.5-0.88,3.12M583.25,492.38a2.43,2.43,0,0,0,3.34,0l-0.07-19.74a3.37,3.37,0,0,0-4.21.12c-2.42,4.51-1.36,9.56-.27,14.33l1.21,5.29M127,543.32a106.16,106.16,0,0,0-18.66,0c4.61,1.82,7.1,6.08,5.7,9.76,3.29,0.58,6.46-2.58,4.69-4.68a14.24,14.24,0,0,1,7.48-2,3.45,3.45,0,0,0,.79-3.06M563.42,565a33.56,33.56,0,0,0,13.7-1.06c-6.47-.09-12.56-3.61-14.14-8.17a48.36,48.36,0,0,0-6.37,13.69c3.25,0,6.22-2.07,6.46-4.43m347.87,19.79a11.81,11.81,0,0,0,7.45-1.16,68.26,68.26,0,0,0-33.2.84,48.83,48.83,0,0,0,19.62-.87,5.85,5.85,0,0,0,2.75,6l3.38-4.78M473.36,505.33c-1.92,3-.59,6.85,3,8.82,6.38-2.8,5.89-10.9-.8-13.29a4.31,4.31,0,0,0-2.68,4.31m536.27,64.06c3.45-1.47,5.33-4.66,4.41-7.49-2.54,3.37-7.19,5.86-12.37,6.63-2.18.32-4.54,0.38-6.38,1.29s-2.65,3.14-.84,4.08c4.45-3.39,12.91-3.34,17.28.11,1.34-1.57.27-3.95-2.1-4.63M292.62,574.4h-7.79c-2.36,1.49-3.66,3.83-3.39,6.1,2-2.83,7.48-4,11.2-2.32s4.87,5.72,2.32,8.29a11.29,11.29,0,0,0,5.83.61l0.22-5.4-8.39-7.27m141.74-65.74c0.49-3.26.15-7.52-4.16-8.52-2,1.87-4,3.84-4.53,6.15a4.92,4.92,0,0,0,3.88,5.83c3.06,0.77,6.94-1.69,5.52-3.8m-71.42-.09a4.76,4.76,0,0,0,1.48,3.42,5.33,5.33,0,0,0,3.09,1.15c4.11-4.35,3.17-10.83-2.11-14.47a16.18,16.18,0,0,0-2.46,9.9m849.24-3.77c-1.73-.06-3.61-0.07-5,0.7a2.48,2.48,0,0,0-1.42,2.56,99.23,99.23,0,0,0,28.71-1.46c-7.38-.93-14.83-1.53-22.31-1.79M229,458.89a8.83,8.83,0,0,1,1.12,7c2,0.71,3.58-1.37,4-2.94,0.76-3.11,1.47-6.48-.55-9.28s-8-4.2-10.76-1.77c4.32-1.18,7.26,3.56,6.15,6.81m41.93,46.38c0.84-3,.37-7.43-3.88-7.64a10.48,10.48,0,0,0-2.86,6.26c-0.33,2.21,0,4.91,2.74,5.94s6.31-2.37,3.53-3.31m108.36,1.29c-1.48,2.17,1,5.17,4.36,5.22A15.81,15.81,0,0,0,385,502.78a2.92,2.92,0,0,0-.88-1.9c-1.54-1.33-4.85-.39-5.72,1.23s-0.12,3.44.63,5.09M263.71,529.1c2.36,1.46,6.31.13,7.53-1.93s0.58-4.43-.08-6.62a3.6,3.6,0,0,0-1.88-2.58c-2.62-1.13-5.31,1.71-5,3.91s1.76,4.56.28,6.49M364,527.26v3.5a9.24,9.24,0,0,0,4.26.63,17.72,17.72,0,0,0,2.57-9.48,3,3,0,0,0-.67-2.1c-1.54-1.63-5.49-.64-6.44,1.22s0,3.91,1,5.76m-91.13,46c3.79-2.94,8-6.06,13.47-6.71,3.39-.41,6.88.2,10.29-0.09-1.73-3.8-9.21-4.68-14-2.66s-7.4,5.85-9.79,9.46M166.55,533.72l-1.46-13c-0.13-1.19-1.79-2.17-3.42-2-1.09,2.76-2.2,5.61-1.75,8.47a8.26,8.26,0,0,0,6.64,6.55m280.55-21.57c0.59-4.21,1.09-8.75-1.88-12.39-5,3.13-5.85,9.11-1.92,12.93a5.14,5.14,0,0,0,3.8-.54M597,566.42c2.51,3,7,5,11.82,5.38-4.95-5.63-13.33-9.6-22.42-10.63-1.61,3,4.79,4.6,9.2,4.42M834.13,439.18l9.53,1.26c1.57-.72,1.09-2.63-0.43-3.4s-3.53-.75-5.38-0.69l-19.5.6L833.79,440M314.41,507.56c-0.77,1.94,1.69,4.16,4.47,4a13.47,13.47,0,0,0-2.12-14.38,10.17,10.17,0,0,0-2.15,10.23m271.93-5.64c5.57,1.78,12.6.76,16.81-2.43a26.11,26.11,0,0,0-14.31-1.68l-2.5,4.11m-228,82.83c3.48-4.63-3-11.23-10.15-10.37a12.72,12.72,0,0,0-5.22,1.82c6.8-.44,11.8,4.34,15.37,8.56m462.92-27.57c-0.95.1-2.08,0.32-2.34,1a0.86,0.86,0,0,0,.57,1,181,181,0,0,0,28.67-.72,89.75,89.75,0,0,0-26.89-1.32M731,572.47c-3.24,1.56-6.77,3.55-7,6.36s5.71,5.14,7.56,2.66c-2.59.66-4.42-2.38-2.84-4s4.59-2,7.25-2.54,5.63-1.51,6.16-3.46l-10.42,2.07M186.72,551c-0.19,2.22,2.27,4.39,5.31,4.68a92.16,92.16,0,0,1,20-7.9c-3.64-2.16-8.94.05-12.71,2.09s-9.65,3.78-12.62,1.13M712.43,410.4a54,54,0,0,0-1.4-27.26,72.58,72.58,0,0,0,1.4,27.26m313.07,45a112.42,112.42,0,0,0-26.85-1.93c-1.77.08-4.13,0.76-3.71,2a244.52,244.52,0,0,0,30.56-.08m-72,131.93a3.32,3.32,0,0,0-2.22,1.26c-0.78,1.63,2.69,2.42,5.06,2.27l14.11-.87c-4.4-3-11.21-4.12-17-2.66M378.55,526.11c-1.29,1.71,3,3.25,5,2s2-3.54,1.74-5.48c-0.15-1.33-.49-2.89-2.11-3.52a4.2,4.2,0,0,0-5,2.05c-0.58,1.55.15,3.18,0.87,4.7M785.79,374.51l-1.86,13c7.23-1.66,8.46-10.27,1.86-13m4.52,192.2a2.69,2.69,0,1,0,4.48-1.3,21.94,21.94,0,0,0,9.45-1.74c-4-3.79-14.1-1.68-14.68,3.06M315.3,518.49A12.65,12.65,0,0,0,316.84,532,16,16,0,0,0,319,519.11l-3.69-.62M263.66,568l-20,3.1c3.83,0.67,7.1,2.8,8.43,5.49A30.29,30.29,0,0,1,263.66,568m489.75,3.53c1.28-1.93,4.27-3.19,7.22-3,0.05,2.14,3.17,3.95,6.06,3.51,1.65-.82,1.2-2.84-0.37-3.74s-3.72-1-5.72-1c-3.36-.06-7.16.11-9.36,2s-0.4,5.66,2.88,5.14l-0.81-2.86M514,383.56c-0.76-1.9-5.68-1.23-5.43.75l3.17,14.77,2.29-13.91a3,3,0,0,0,0-1.6M649.9,591.85a26.2,26.2,0,0,1,11.34,1.07c1.84-2.31-1.57-5.31-5.23-5.53s-7,1.31-10.09,2.79l3.81,1.77m-76.59-36c-1.74.2-2.74,1.92-1.72,3a79.29,79.29,0,0,0,15.21,1.25c-2.72-3.28-8.42-5.1-13.59-4.35M473.38,589.4c-4.4-1.67-7.81-4.66-9.26-8.11l-3.76,2.86c1.41,3.93,7,6.83,12.63,6.48m140.74-26.11c-1-1.44-3.53-2.2-5.6-1.64,4.15,4.51,10.38,8,17.45,9.74-2.17-3.61-6.73-6.43-12-7.41m565.1-23.12a57,57,0,0,0,23.19-.56,46.45,46.45,0,0,0-23.19.56m-766,24.6-11.61-2.21,1.94,1.64a15.55,15.55,0,0,0,6.35,3.74c2.62,0.63,6.09-.13,6.84-2.06,1.64-.64-1.33-1.89-3.1-1.47m114.81-41.93c0.16-1.15-2.51-1.47-3.42-.52s-0.46,2.25.21,3.29a16.1,16.1,0,0,0,7,5.71,9.22,9.22,0,0,0-3.69-8.45m669-9.08a34.07,34.07,0,0,0-14.39,2.08c-1.67.64-3.46,1.94-2.63,3.17a56.66,56.66,0,0,0,17-5.26m-659.3,74.37a19.76,19.76,0,0,0-12.24,3.85c5.8,1,12.24-.4,16.4-3.49a6.62,6.62,0,0,0-4.12-.63M1009.71,436a3.78,3.78,0,0,0,2.56-1,1.11,1.11,0,0,0-.52-1.59l-17.3,1.09a33,33,0,0,0,15.26,1.54m-344.49,78.5a62.48,62.48,0,0,0,24.75-.92,78.25,78.25,0,0,0-24.75.92m-359.83,4.19a7.19,7.19,0,0,0-7,.43,23.2,23.2,0,0,0,.36,7.42l7.82-7.44m890.69,11.05c-0.1-1.77-2.14-3.38-4.56-3.6-0.68,1.55-1.25,3.23-.6,4.79a4.67,4.67,0,0,0,5.09,2.37c2.14-.5,2.52-3.22.35-3.64M69.22,560.15a11.21,11.21,0,0,0-.38-11.75l-3,11.3a3.87,3.87,0,0,0,3.4.45M997.36,418.71c-1.32-.73-2.66,1.27-1.54,2.16a51.68,51.68,0,0,0,15.6-.92,26.55,26.55,0,0,0-14-1.16M419.33,579a3.58,3.58,0,0,0-.16-4.76c-3,1.59-3.9,4.95-1.92,7.23s6.54,3.16,9.82,1.87c-3.46-.31-6.64-1.91-8.27-4.14m-75.57,13.08a9.68,9.68,0,0,0,9.14-.8c-1.85-1.53-4.09-3.2-6.9-3.14s-4.84,3.22-2.34,4.14m693.17-137.11a45.41,45.41,0,0,0,21,1.13,55.61,55.61,0,0,0-21-1.13M374.78,586.25l10.87-5.75c-5.75-.6-11.86,1.49-14.87,5.09l3.62,0.5m403.43-20.71-4.72-1.26a7,7,0,0,0-4,3.91,30.76,30.76,0,0,0,8.85.46,2.31,2.31,0,0,0,.11-3.52M508.37,527.25a10.07,10.07,0,0,0,3.86,6.5,21.52,21.52,0,0,0,.72-8.85c-2.05-.93-5.18.64-4.72,2.36m307.1-104.56,1.28,6.54c3.29-4.12,2.55-9.73-1.77-13.32l0.87,6.71M260,555.08c-3.69-1.46-9,.49-9.58,3.52,4,0.73,8.53-.49,10.9-2.94M639,593.39l5.52-2c-2.59-2.58-8.6-2.74-11.45-.32a6.45,6.45,0,0,0,5.59,1.78M996.41,449.73l19.77,0.66c1.68,0.06,3.71,0,4.57-1.06a84,84,0,0,0-24.34.4M560.27,421a50,50,0,0,0-.14-19.83,50,50,0,0,0,.14,19.83m-408,169.2a13.85,13.85,0,0,0,12,.4,96.54,96.54,0,0,0-14-2.25c-1.35.67,0,2.59,1.55,2.18m237.3-48.69a18.59,18.59,0,0,0,15.19-.55,36.84,36.84,0,0,0-14.64-.07m123.79-82.77-2.79-2.75a4.67,4.67,0,0,0-.13,8.28c2.16-1.16,3.12-3.37,2.27-5.22M114,585.17l1.71-1.92c-1.5-2.64-6.41-3.91-9.86-2.54,1.13,2.23,4.27,3.83,7.53,3.86m9.4,0.12c-1.17,1.33,1.55,3.25,3.35,2.36l4.09-6.51c-3.36-.31-6.75,1.81-6.82,4.26m427.54-134,0.21-10.31c-3.46,2.32-4.32,6.43-2,9.4M340.27,579.6a4.8,4.8,0,0,0,1.64,6c1.7-1.56,3.51-3.42,2.91-5.37s-5.19-2.74-5.89-.82m672-54.29c4,1.43,8.65-3.15,5.59-5.49-3.29.42-5.84,2.86-5.51,5.27M529.71,585.87a5.46,5.46,0,0,0,3.39-3.33c-4.36-.81-9.58,1.93-8.94,5.16a9.36,9.36,0,0,0,5.6-1.77M509,415.16c-2.17,3.4-1.17,7.73,2.43,10.42l-1-10.52m41.62,162.58c1.49-.42.1-2.47-1.26-1.87l-9.11,3.6c3.29,1.6,8.32.85,10.46-1.58m312.3-169.48a8.24,8.24,0,0,1-4.66-2.47c-1.87.69-2.88,2.41-2.27,3.86,1.79,0.73,3.82,1.5,5.82,1.13s3.25-2.52,1.57-3.38m-371.45.15,1.16,6.39,2.07-14.51c-3.76,1.19-3.49,5.08-2.6,8M337.3,591.07c1.81-.94,1.44-3.11-0.15-4.24s-3.91-1.48-6.09-1.78c-1.13,2.41,2.25,5.26,5.71,4.81M589.28,582c1.21,0.54,1.71-1.52.32-1.72a3.58,3.58,0,0,0-3.19,1.7,17.37,17.37,0,0,0-3,6.13c3.5,0.21,6.37-3,4.68-5.25m646-62.78c3.1,1,7.16.23,9.07-1.83-3.1-1.83-8.33-1.21-10.47,1.24m-1007-49.26c3.93-1.58,1.91-5.93-.57-8.65-2.46,2.28-2.13,5.9.72,7.93M68.34,580.94a3,3,0,0,0-1.86,4.52c1.09,1.57,3.51,2.48,5.92,2.69l-3.82-6.85m746.22,2.39a5.82,5.82,0,0,0-4.07.56,24.8,24.8,0,0,0,14.74,3.35l-10.77-3.75M533.84,512a1.53,1.53,0,0,0,.65-3c-1.54-.75-3.61-0.38-5.35.09s-3.64,1-5.38.55c2.08,2.23,6.91,2.76,9.79,1.06M941.88,591.6c4.16,1.59,9-3.54,5.4-5.76A7.7,7.7,0,0,0,943,590.6m43.57-10.08c1.89-1.16.32-3.65-2.07-4.13s-4.87.33-7.1,1.12a49.64,49.64,0,0,0,8.79,2.5m-177.15-5.24c-2.24,1.26-.27,4.48,2.52,4.11l2.3-4c-0.42-1.69-4.54-1.77-5.08-.1m-376.68-12c-2.29.76-3.18,3.14-1.73,4.63,3.39-.4,6.05-2.88,5.76-5.36-1.06-.9-3.46-0.51-3.89.63M73.11,578c1.27,0.86,1.95-1.4.94-2.43-2-2.06-6.77-4-8.18-1.73l7.07,4.36M234.3,445.46l-9.25.1a11.79,11.79,0,0,0,5.83,2.88c2.37,0.27,5.17-1.21,4.56-2.89m42.86,139.28c0.92,0.4,2-.66,1.51-1.36s-1.67-.95-2.73-1a21.26,21.26,0,0,0-8,.82,10.57,10.57,0,0,0,9.09,1.26m447-35.77c-1.82,1.7.26,4.67,3.22,4.6a7.27,7.27,0,0,0,.81-5.17c-1.15-.76-3.29-0.41-3.89.62M1050.49,452c2.91,1.16,6.94.52,8.91-1.42-2.33.34-4.54-.89-6.9-1s-4.69,2.46-2.48,3.08m-487.34,54.9a2.62,2.62,0,0,0,.66,2.88c2.7,0.18,6.12.06,7.19-1.74-1.7-1.79-5.44-2.34-8-1.17M542.73,366.07c2.75,0.57,6.88.52,7.17-1.55a27.23,27.23,0,0,0-11.38-.09,6.26,6.26,0,0,0,4.05,1.85M116.06,565.07c-0.54-2.18-5.2-3-7.06-1.24,1.62,0.18,2.7,1.26,3.76,2.17a4.94,4.94,0,0,0,4.19,1.41,1.15,1.15,0,1,0-.42-2.26M547.27,381.43l-1.22-7c-3.75,1.65-3.18,6.51.91,7.67M150.6,523.84c-0.7-1.89-3.83-3.08-6.37-2.44a12,12,0,0,0,7.67,5.13c1-.82.44-2.31-1-2.68m1095.72-67.4a4.91,4.91,0,0,0,.38-6.72c-3.17,1.58-3.76,5.27-1.17,7.34M224.39,411.14c0.76,2.54,5.7,3.8,8.48,2.16-1.28-2.23-5.27-3.4-8.33-2.44M726,568.27c4.27-.88,3.82-5.72.65-8a15.75,15.75,0,0,0-.68,7.64M229.58,429.29c-1.11-1.38-4.24-1.54-5.6-.28a34.86,34.86,0,0,0,12,2c0.69-1.72-3.13-2.24-5.52-1.8M758.13,591.74a12.37,12.37,0,0,0,7.78-4.23c-3.33-1-7.65,1-7.68,3.67M511.46,449.25a7.27,7.27,0,0,0,.61-8.58,11.07,11.07,0,0,0-2,8.2M158,578.41c-1.53.78-1.23,2.62,0.12,3.57a12,12,0,0,0,5.14,1.5c0.53-2.18-2-4.47-5.09-4.53m581.19,2a16.89,16.89,0,0,0,10.79-2.66c-3.48-1-7.83-.08-10,2.14M302.36,478c-1.77-.42-4-0.07-5,1.08s-0.13,3,1.72,3.18c2.42-.62,4-2.58,3.63-4.42m591.43,93.63c2-.91,1.37-3.61-0.95-4-2.1,1.12-3,3.28-2.13,5.06,0.85,1,3.52,0,2.88-1.09m-216-1.19V565.6c-1.6-.75-4.07-0.12-4.68,1.19l3.24,4.14m-246-47.8a6.69,6.69,0,0,0,4-.47c0.15-2.18-4-3.75-6.38-2.41-0.88,1.18.43,2.87,2.28,2.94m141-169.13c-3.22.09-4.67,3.8-2,5.11,2.44-1.61,4.78-4.7,2-6M367.65,489.12L364,491.19l4,2.9a2.28,2.28,0,0,0,0-4.49m-89.65,99.85c-2.91-.38-6.07.84-7.27,2.8,3.14,0.85,7-.38,8.34-2.62m-239.61-.18c1.23,1.4,4.38,1.58,5.9.34a49.16,49.16,0,0,0-6-3.81,2.35,2.35,0,0,0-.08,3.52M473.85,491c-0.64,1.66.87,3.6,3.16,4.07a3.25,3.25,0,0,0,2.17-2.68c-0.68-1.28-3-1.91-4.71-1.26m-169.9-1c-1-1.64-4.14-2.32-6.16-1.32-0.63,2.47,5.5,3.73,6.74,1.37m438.24,39.66c1.47-1,.1-3-1.86-3.39a11.6,11.6,0,0,0-5.84.89,8.1,8.1,0,0,0,7,1.51m320.8-85.12c0.66,1.69,5.15,0,3.48-1.28l-5.55-1.79c-1.08,1.13-.14,3,1.7,3.3M794.47,552.72c0.78-1.95.83-4.83-1.93-5.16-0.77,1.17-1.57,2.43-1.28,3.71a3.14,3.14,0,0,0,3.81,1.91M162.42,569c1,1.64,4.14,2.32,6.16,1.32,0.63-2.47-5.5-3.73-6.74-1.37m416.09,11.44c-2.49.52-4.14,2.6-3.5,4.43,1.8-.34,3.75-0.75,4.81-1.85a1.88,1.88,0,0,0-1.45-3.15M489,459.68c-4,.14-3.84,4.86-0.71,6.62a11.94,11.94,0,0,0,.64-6.44M589.09,573c2.36,0.83,5.3-.87,5.48-2.76-2.81-1.1-6.84.65-6.81,3m-455.13-23.4c-2.43.12-4.83,2.23-3.22,3.56,1.73,0,3.71,0,4.85-.92s0-2.94-1.64-2.46m252.21-13.43a17.92,17.92,0,0,0,9.6,0c-2.09-2.28-7.49-2.27-9.58,0M173.18,554.14c2.44,1.65,7,1,8.38-1.25-2.51-1.29-6.42-.76-8.12,1.09m224.69,23.85c-1.76-.61-3.68,1.09-3.25,2.47s2.16,2.32,3.77,3.13a3.49,3.49,0,0,0-1.41-4.74M836.55,579c0.09-1.36-1.78-2.6-3.64-2.42s-3.2,1.75-2.61,3a6.51,6.51,0,0,0,5.22-.78m-374.8-3-5-1.23c-0.74,1.41.71,3.19,2.78,3.39s4.12-1.22,3.93-2.72M820.52,406.42a2.82,2.82,0,0,0,.7,3l5.5-.35c-0.84-1.86-3.6-3.16-6.29-3M477.64,484.25a2.62,2.62,0,0,0-.66-2.88,6,6,0,0,0-3.95.56c-1.4,1.76,2.87,3.9,4.64,2.31m101.89,23.92c-2,1.74-1.36,4.7,1.24,5.94,1.91-1.8,1.25-4.74-1.36-6M541,530.18c1.45-1.49.59-3.85-1.67-4.64l-2.39,4a7,7,0,0,0,4,.54M240.09,570.41a8.45,8.45,0,0,0-7.27,2.13c2.36,1.47,6.64.55,7.53-1.61m303.14,14.41c0-2.23-4.34-3.69-6.73-2.27,0.82,1.92,4.07,3.08,6.66,2.37M175,568.12l5,1c-0.38-2.08-2.82-3.87-5.68-4.18-1.06.84-.61,2.4,0.82,2.86M996.59,440.11a12.86,12.86,0,0,0,7.91,0c-1.52-2.2-6.6-2.33-8.33-.22M700.74,589.57a14.58,14.58,0,0,0,5.87-4.28,7.66,7.66,0,0,0-3.88-.5l-2.4,4.06M228.66,423.11l-3.89.5a19.23,19.23,0,0,0,9.63,1.76c0.88-1.74-3.08-2.39-5.56-2M801.26,575c2.56-.23,4.75-1.88,5-3.74-2.68-.94-6.09,1.62-4.7,3.53m235-134.21c0,0.58,1.53.13,1.27-.42s-1.24-.69-2-0.72a53.34,53.34,0,0,0-10.38.65,34.72,34.72,0,0,0,10.47.57M443.5,490.77c-2,1.22-1.26,4,1.2,4.59,1.91-1.38,1.24-4.1-1.2-4.91m159-.41c1-1-1.76-1.91-3-1.11A5.35,5.35,0,0,0,600,493c1.75,0.65,2.83-1.5,2.54-2.91m-286.38.09c-1,1.13.44,2.88,2.28,2.79a4.54,4.54,0,0,0,.6-4c-0.9-1-3.56,0-3,1.11M635.9,576.24c-1.05-1.52-4.48-1.71-5.84-.32,0.67,2.06,5.54,2.26,6.52.27m-105.32-2.93c-1.32-.78-2.46,1.3-1.47,2.3l5.57-.3c1.06-1.28-1.92-2.35-3.92-2M1019,444.82a31.42,31.42,0,0,0,12.88-.07,31.45,31.45,0,0,0-12.88-.06M114.54,521.85c-1.75.89-2.2,2.87-.93,4.12a8.6,8.6,0,0,0,3.28-4.58c0.12-1.21-3.22-1.08-2.92.11m950.72-93.71c1.75,0.5,4.36-.37,3.94-1.7a10.94,10.94,0,0,0-5.53-.44c-1.37.65,0,2.58,1.52,2.15M564.36,572.43c1.68,1.44,5.49.92,6.33-.87-1.9-1.38-5.65-.9-6.77.87M214.84,557.54c-0.51-1.3-2.91-2-4.5-1.28a14.19,14.19,0,0,0,7.36,4.14l-2.23-3.06M1083.7,584.8c0.07,2,4.07,3.08,5.94,1.66-0.44-1.82-3.8-2.86-5.92-1.84m-596.4-96.88,3.25-2.41c-2-.46-4.56-0.72-5.86.47s1.82,3.24,2.64,1.84M234.11,440.28c-1.62-1.49-5.5-1-6.28.84,1.87,1.39,5.62.92,6.74-.84M379.88,491c-1.71,1,.36,3.44,2.35,2.79,2.26-.75-0.39-3.81-2.3-2.66M122.83,570.69c1.81-.8.79-3.31-1.34-3.27-0.73.84-1.5,1.8-1.21,2.77s2.29,1.6,3.06.78m704.28-1.25a6.88,6.88,0,0,0-4.08.48A3.36,3.36,0,0,0,826,573c1.78-.47,2.64-2.21,1.69-3.39M447.21,485c0.33-2.14-4.32-3.48-6.11-1.77a6.12,6.12,0,0,0,5.39,1.61m-16.81,6.45c-2.44.65,0.24,4,2.21,2.74,1.55-1.07-.28-3.38-2.34-3m592.74-66.54c0-.55-1.44-0.17-1.23.36s1.11,0.7,1.87.75a33,33,0,0,0,9-.61,26.16,26.16,0,0,0-8.87-.54m17.36,168.68c1.27,0.35,2.41-1,1.9-1.88s-1.88-1.38-3.12-1.78c-1.78.92-.73,3.42,1.46,3.46M489.78,496.49a3.45,3.45,0,0,0,0-4.52,2.39,2.39,0,0,0-.21,4.73m-107.5-16.87-3.71,2,4.06,1.76a1.67,1.67,0,0,0-.08-3.3M774.61,575.5c0.06,1.95,4,3.09,5.89,1.71,0.27-1.71-3.3-2-5.59-1.54m-3.32-35c1.51-1.41.69-3.79-1.56-4.52-1.83,1.38-1,4.05,1.49,4.72M662.59,570.53a5.84,5.84,0,0,0,0-6.67,4.76,4.76,0,0,0-.41,6.26M231,556.29c-0.19.94,1.12,1.86,2.4,1.69l2.34-2.82c-1.33-1.23-4.67-.41-4.68,1.16m832.8,38.35c0.8-1.57-3-2-5-1.22,0.09,1.63,3.55,2.46,5,1.18M510.4,410.3c2.07-1.31.94-4.27-1.76-4.63a5.37,5.37,0,0,0,2,4.74m-121.53,157c1.24-1.62-3-3.37-4.28-1.76-0.14,1.31,2.4,2.26,3.79,1.43M230.33,433.8c-1.79-.28-4.66.41-3.71,1.54,1.12,1.61,5.31-.27,3.81-1.72m282.69,0.51c-2.13-1-4.67,2-2.51,3,1.6,0.74,2.61-1.43,2.19-2.77M959.85,578.4a2.76,2.76,0,0,0,.64,2.91,3.47,3.47,0,0,0,2.25-2.91c-0.06-1.23-3.23-1.25-3.32,0m285.46-115a4.8,4.8,0,0,0,.65,4.11l2.07-3a2.25,2.25,0,0,0-1.35-2.22c-1.06-.36-2.37,1-1.28,1.29M695.38,566.74c1-1-1.81-2-3-1.08a2.64,2.64,0,0,0,1,3.16l2.44-1.77M153.47,538.3c-2.11-.58-2.88,2.1-1.76,3.52,2.15,0.56,2.92-2.12,1.85-3.59m153.09-54.29a5.78,5.78,0,0,0,5.94.38c-0.67-1.6-4.13-2-5.49-.68M93.53,550.34c-2.13-1-4.68,2-2.51,3,1.6,0.74,2.61-1.43,2.19-2.77M1042.26,419.7l-5,.26c1.23,1,2.83,2.21,4.7,2s2-2.87.11-2.62M309.61,549.47c-1.56.35-2.1,2.06-.9,2.86,2.36,0,3.12-3.23.76-3.16M101.3,572.41A8.24,8.24,0,0,0,96.58,575c2.1,0.85,5.13-.7,4.75-2.42m47.36,8.73a2.07,2.07,0,0,0-.31,3.24,1.75,1.75,0,1,0,.32-3.48m85-161.33c-0.85-1.61-3.64-2.5-5.85-1.88a6.21,6.21,0,0,0,5.63,1.89M130.88,539.4c-1,1.18-.09,2.92,1.69,3.38,1.71-.93.53-3.35-1.61-3.3m108.75,5.76a1.28,1.28,0,0,0-.41,2.42c1.12,0.57,3-.11,3-1.1L240.17,545m312.14,37.73c-1.37.22-.61,2,0.8,2a3.83,3.83,0,0,0,3.05-1.87l-3.94-.52M754.74,582c2.19,0.83,5.24-.8,4.81-2.56a7.32,7.32,0,0,0-4.65,2.49m-311.6-8.71a6.88,6.88,0,0,0-4,.42,4.35,4.35,0,0,0,3.13,1.69c1.36,0,2-1.78.69-1.92M133.3,558.61a3.14,3.14,0,0,0,2.41,2.71c2.18-.87-0.43-3.85-2.44-2.79m883.42-14.41c-2.06-.59-2.94,2-1.83,3.42,1.82-.47,2.77-2.21,1.88-3.45m245.36-81.81c-0.3-1-2.74-.44-2.75.58s1.33,1.75,2.58,2.21l0.72-2.86M675.44,555.62a1.63,1.63,0,1,1,.14,0M1068,575.68l-4.09,1.48c1.31,0.61,2.91,1.24,4.33.78a1.14,1.14,0,0,0-.48-2.22m-149.28.16a8.71,8.71,0,0,0,7.65,0l-7.21-.56m84.55-50.19L999.94,527c1,1.69,5.45,0,4.1-1.57m109.42-30.61c0.49,0.93,2.54,1.11,3.33.3s-0.15-2.15-1.52-2.17l-2.15,1.54m-448,46.91c-1.21-.39-1.26,1.56.05,1.6a3.29,3.29,0,0,0,2.73-1.83c0.12-1.22-3.19-1.2-3,0M151.09,576.11c-1,.52.66,1.64,1.69,1.2A2.31,2.31,0,0,0,154,575c-0.79-1-3.48,0-2.76,1.06m846-152.62c-1-.66-2.54.81-1.71,1.61s2.5,0.77,3.83.47c0.17-.92-0.75-1.87-2-2.08m100.13,139.74c1.56-.35,2.1-2.06.9-2.86-2.36,0-3.12,3.23-.76,3.16M665,555.15a2.88,2.88,0,0,0-.57-2.88c-1.12.56-2.36,1.29-2.33,2.27s2.45,1.47,2.64.5Z" transform="translate(-2.08 -161.78)"/>
  </g>
</svg>
